<svg width="300" height="300" viewBox="0 0 300 300" fill="none" xmlns="http://www.w3.org/2000/svg">
<circle cx="150" cy="150" r="150" fill="#D39999"/>
<circle cx="150" cy="150" r="125" fill="#E9CCCC"/>
<circle cx="150" cy="150" r="100" fill="#F4E6E6"/>
<path d="M144.868 121.427L144.876 121.419L144.82 121.327C144.662 120.996 144.467 120.683 144.24 120.395C141.019 115.462 136.291 111.701 130.76 109.672C125.229 107.644 119.191 107.456 113.544 109.136C107.898 110.817 102.945 114.276 99.4231 118.999C95.9014 123.722 93.9993 129.456 94 135.347C94 145.063 99.152 153.547 106.788 158.399C111.62 161.639 122.924 156.679 132.836 146.759C142.288 137.307 147.236 126.591 144.868 121.427Z" fill="#F6BF3F"/>
<path d="M144.868 121.427L144.876 121.419L144.82 121.327C144.662 120.996 144.467 120.683 144.24 120.395C141.019 115.462 136.291 111.701 130.76 109.672C125.229 107.644 119.191 107.456 113.544 109.136C107.898 110.817 102.945 114.276 99.4231 118.999C95.9014 123.722 93.9993 129.456 94 135.347C94 145.063 99.152 153.547 106.788 158.399C111.62 161.639 122.924 156.679 132.836 146.759C142.288 137.307 147.236 126.591 144.868 121.427Z" fill="url(#paint0_radial_1640_13475)"/>
<path d="M144.868 121.427L144.876 121.419L144.82 121.327C144.662 120.996 144.467 120.683 144.24 120.395C141.019 115.462 136.291 111.701 130.76 109.672C125.229 107.644 119.191 107.456 113.544 109.136C107.898 110.817 102.945 114.276 99.4231 118.999C95.9014 123.722 93.9993 129.456 94 135.347C94 145.063 99.152 153.547 106.788 158.399C111.62 161.639 122.924 156.679 132.836 146.759C142.288 137.307 147.236 126.591 144.868 121.427Z" fill="url(#paint1_radial_1640_13475)"/>
<path d="M144.868 121.427L144.876 121.419L144.82 121.327C144.662 120.996 144.467 120.683 144.24 120.395C141.019 115.462 136.291 111.701 130.76 109.672C125.229 107.644 119.191 107.456 113.544 109.136C107.898 110.817 102.945 114.276 99.4231 118.999C95.9014 123.722 93.9993 129.456 94 135.347C94 145.063 99.152 153.547 106.788 158.399C111.62 161.639 122.924 156.679 132.836 146.759C142.288 137.307 147.236 126.591 144.868 121.427Z" fill="url(#paint2_radial_1640_13475)"/>
<g filter="url(#filter0_i_1640_13475)">
<path d="M154.904 121.427L154.896 121.419L154.948 121.327C155.108 120.991 155.308 120.679 155.532 120.395C158.753 115.462 163.481 111.701 169.012 109.672C174.543 107.644 180.581 107.456 186.228 109.136C191.874 110.817 196.827 114.276 200.349 118.999C203.871 123.722 205.773 129.456 205.772 135.347C205.772 145.063 200.78 153.975 193.148 158.827C188.316 162.063 176.812 156.675 166.9 146.763C157.444 137.307 152.536 126.591 154.904 121.427Z" fill="#F7CC36"/>
<path d="M154.904 121.427L154.896 121.419L154.948 121.327C155.108 120.991 155.308 120.679 155.532 120.395C158.753 115.462 163.481 111.701 169.012 109.672C174.543 107.644 180.581 107.456 186.228 109.136C191.874 110.817 196.827 114.276 200.349 118.999C203.871 123.722 205.773 129.456 205.772 135.347C205.772 145.063 200.78 153.975 193.148 158.827C188.316 162.063 176.812 156.675 166.9 146.763C157.444 137.307 152.536 126.591 154.904 121.427Z" fill="url(#paint3_radial_1640_13475)"/>
<path d="M154.904 121.427L154.896 121.419L154.948 121.327C155.108 120.991 155.308 120.679 155.532 120.395C158.753 115.462 163.481 111.701 169.012 109.672C174.543 107.644 180.581 107.456 186.228 109.136C191.874 110.817 196.827 114.276 200.349 118.999C203.871 123.722 205.773 129.456 205.772 135.347C205.772 145.063 200.78 153.975 193.148 158.827C188.316 162.063 176.812 156.675 166.9 146.763C157.444 137.307 152.536 126.591 154.904 121.427Z" fill="url(#paint4_radial_1640_13475)"/>
</g>
<g filter="url(#filter1_f_1640_13475)">
<path d="M193.268 157.45C189.333 161.385 178.028 156.46 168.018 146.45C158.008 136.44 153.084 125.136 157.019 121.201C160.954 117.266 172.258 122.191 182.268 132.201C192.278 142.211 197.203 153.515 193.268 157.45Z" stroke="url(#paint5_linear_1640_13475)" stroke-width="2"/>
</g>
<path d="M193.268 157.448C189.333 161.383 178.028 156.458 168.018 146.448C158.008 136.438 153.084 125.134 157.019 121.199C160.954 117.264 172.258 122.189 182.268 132.199C192.278 142.209 197.203 153.513 193.268 157.448Z" fill="url(#paint6_linear_1640_13475)"/>
<path fill-rule="evenodd" clip-rule="evenodd" d="M129.94 163.417C130.928 163.029 132.029 163.05 133.001 163.475C133.973 163.9 134.737 164.693 135.124 165.681C136.852 170.101 139.948 181.209 131.952 191.149C131.285 191.968 130.32 192.491 129.269 192.602C128.217 192.712 127.165 192.402 126.342 191.74C125.518 191.077 124.99 190.115 124.874 189.064C124.757 188.014 125.062 186.96 125.72 186.133C130.92 179.669 129.108 172.265 127.672 168.601C127.48 168.111 127.387 167.589 127.397 167.064C127.408 166.538 127.521 166.02 127.732 165.539C127.942 165.057 128.246 164.622 128.625 164.258C129.004 163.894 129.45 163.608 129.94 163.417Z" fill="#FC28A2"/>
<path fill-rule="evenodd" clip-rule="evenodd" d="M129.94 163.417C130.928 163.029 132.029 163.05 133.001 163.475C133.973 163.9 134.737 164.693 135.124 165.681C136.852 170.101 139.948 181.209 131.952 191.149C131.285 191.968 130.32 192.491 129.269 192.602C128.217 192.712 127.165 192.402 126.342 191.74C125.518 191.077 124.99 190.115 124.874 189.064C124.757 188.014 125.062 186.96 125.72 186.133C130.92 179.669 129.108 172.265 127.672 168.601C127.48 168.111 127.387 167.589 127.397 167.064C127.408 166.538 127.521 166.02 127.732 165.539C127.942 165.057 128.246 164.622 128.625 164.258C129.004 163.894 129.45 163.608 129.94 163.417Z" fill="url(#paint7_linear_1640_13475)"/>
<path fill-rule="evenodd" clip-rule="evenodd" d="M177.816 130.143C178.251 130.33 178.645 130.599 178.975 130.938C179.305 131.276 179.566 131.676 179.742 132.115C179.917 132.555 180.005 133.024 179.999 133.497C179.993 133.97 179.894 134.437 179.708 134.871C176.52 142.295 171.804 147.795 167.04 150.851C166.984 151.082 166.924 151.311 166.86 151.539C166.168 153.979 165.06 156.251 163.968 157.623C163.402 158.338 162.587 158.812 161.685 158.949C160.784 159.086 159.864 158.876 159.112 158.361C158.359 157.846 157.83 157.065 157.631 156.175C157.432 155.286 157.578 154.354 158.04 153.567C157.681 153.536 157.325 153.484 156.972 153.411C153.924 152.787 151.672 150.651 150.756 147.523C149.996 144.935 150.236 142.415 151.52 140.351C152.76 138.347 154.744 137.167 156.736 136.711C160.36 135.891 164.952 137.363 166.768 141.779C169.048 139.427 171.308 136.179 173.088 132.031C173.465 131.154 174.174 130.462 175.061 130.108C175.948 129.754 176.939 129.767 177.816 130.143ZM157.636 144.143C158.992 142.623 160.852 144.511 160.4 146.131C158.492 147.523 156.492 145.591 157.64 144.147" fill="url(#paint8_linear_1640_13475)"/>
<path fill-rule="evenodd" clip-rule="evenodd" d="M177.816 130.143C178.251 130.33 178.645 130.599 178.975 130.938C179.305 131.276 179.566 131.676 179.742 132.115C179.917 132.555 180.005 133.024 179.999 133.497C179.993 133.97 179.894 134.437 179.708 134.871C176.52 142.295 171.804 147.795 167.04 150.851C166.984 151.082 166.924 151.311 166.86 151.539C166.168 153.979 165.06 156.251 163.968 157.623C163.402 158.338 162.587 158.812 161.685 158.949C160.784 159.086 159.864 158.876 159.112 158.361C158.359 157.846 157.83 157.065 157.631 156.175C157.432 155.286 157.578 154.354 158.04 153.567C157.681 153.536 157.325 153.484 156.972 153.411C153.924 152.787 151.672 150.651 150.756 147.523C149.996 144.935 150.236 142.415 151.52 140.351C152.76 138.347 154.744 137.167 156.736 136.711C160.36 135.891 164.952 137.363 166.768 141.779C169.048 139.427 171.308 136.179 173.088 132.031C173.465 131.154 174.174 130.462 175.061 130.108C175.948 129.754 176.939 129.767 177.816 130.143ZM157.636 144.143C158.992 142.623 160.852 144.511 160.4 146.131C158.492 147.523 156.492 145.591 157.64 144.147" fill="url(#paint9_linear_1640_13475)"/>
<path fill-rule="evenodd" clip-rule="evenodd" d="M177.816 130.143C178.251 130.33 178.645 130.599 178.975 130.938C179.305 131.276 179.566 131.676 179.742 132.115C179.917 132.555 180.005 133.024 179.999 133.497C179.993 133.97 179.894 134.437 179.708 134.871C176.52 142.295 171.804 147.795 167.04 150.851C166.984 151.082 166.924 151.311 166.86 151.539C166.168 153.979 165.06 156.251 163.968 157.623C163.402 158.338 162.587 158.812 161.685 158.949C160.784 159.086 159.864 158.876 159.112 158.361C158.359 157.846 157.83 157.065 157.631 156.175C157.432 155.286 157.578 154.354 158.04 153.567C157.681 153.536 157.325 153.484 156.972 153.411C153.924 152.787 151.672 150.651 150.756 147.523C149.996 144.935 150.236 142.415 151.52 140.351C152.76 138.347 154.744 137.167 156.736 136.711C160.36 135.891 164.952 137.363 166.768 141.779C169.048 139.427 171.308 136.179 173.088 132.031C173.465 131.154 174.174 130.462 175.061 130.108C175.948 129.754 176.939 129.767 177.816 130.143ZM157.636 144.143C158.992 142.623 160.852 144.511 160.4 146.131C158.492 147.523 156.492 145.591 157.64 144.147" fill="url(#paint10_radial_1640_13475)"/>
<path fill-rule="evenodd" clip-rule="evenodd" d="M177.816 130.143C178.251 130.33 178.645 130.599 178.975 130.938C179.305 131.276 179.566 131.676 179.742 132.115C179.917 132.555 180.005 133.024 179.999 133.497C179.993 133.97 179.894 134.437 179.708 134.871C176.52 142.295 171.804 147.795 167.04 150.851C166.984 151.082 166.924 151.311 166.86 151.539C166.168 153.979 165.06 156.251 163.968 157.623C163.402 158.338 162.587 158.812 161.685 158.949C160.784 159.086 159.864 158.876 159.112 158.361C158.359 157.846 157.83 157.065 157.631 156.175C157.432 155.286 157.578 154.354 158.04 153.567C157.681 153.536 157.325 153.484 156.972 153.411C153.924 152.787 151.672 150.651 150.756 147.523C149.996 144.935 150.236 142.415 151.52 140.351C152.76 138.347 154.744 137.167 156.736 136.711C160.36 135.891 164.952 137.363 166.768 141.779C169.048 139.427 171.308 136.179 173.088 132.031C173.465 131.154 174.174 130.462 175.061 130.108C175.948 129.754 176.939 129.767 177.816 130.143ZM157.636 144.143C158.992 142.623 160.852 144.511 160.4 146.131C158.492 147.523 156.492 145.591 157.64 144.147" fill="url(#paint11_radial_1640_13475)"/>
<path d="M150.212 191.389C152.213 191.389 153.836 189.766 153.836 187.765C153.836 185.763 152.213 184.141 150.212 184.141C148.21 184.141 146.588 185.763 146.588 187.765C146.588 189.766 148.21 191.389 150.212 191.389Z" fill="url(#paint12_radial_1640_13475)"/>
<path d="M162.148 175.264C164.149 175.264 165.772 173.641 165.772 171.64C165.772 169.638 164.149 168.016 162.148 168.016C160.146 168.016 158.524 169.638 158.524 171.64C158.524 173.641 160.146 175.264 162.148 175.264Z" fill="url(#paint13_radial_1640_13475)"/>
<path d="M177.9 187.264C179.901 187.264 181.524 185.641 181.524 183.64C181.524 181.638 179.901 180.016 177.9 180.016C175.899 180.016 174.276 181.638 174.276 183.64C174.276 185.641 175.899 187.264 177.9 187.264Z" fill="url(#paint14_radial_1640_13475)"/>
<path d="M134.24 158.973C136.043 158.973 137.504 157.512 137.504 155.709C137.504 153.907 136.043 152.445 134.24 152.445C132.437 152.445 130.976 153.907 130.976 155.709C130.976 157.512 132.437 158.973 134.24 158.973Z" fill="url(#paint15_radial_1640_13475)"/>
<path d="M122.192 182.51C123.824 182.51 125.148 181.186 125.148 179.554C125.148 177.921 123.824 176.598 122.192 176.598C120.559 176.598 119.236 177.921 119.236 179.554C119.236 181.186 120.559 182.51 122.192 182.51Z" fill="url(#paint16_radial_1640_13475)"/>
<path d="M122.192 182.51C123.824 182.51 125.148 181.186 125.148 179.554C125.148 177.921 123.824 176.598 122.192 176.598C120.559 176.598 119.236 177.921 119.236 179.554C119.236 181.186 120.559 182.51 122.192 182.51Z" fill="url(#paint17_radial_1640_13475)"/>
<g filter="url(#filter2_f_1640_13475)">
<path d="M107.023 157.451C110.958 161.386 122.263 156.461 132.273 146.451C142.283 136.441 147.207 125.137 143.273 121.202C139.338 117.267 128.033 122.192 118.023 132.202C108.013 142.212 103.088 153.516 107.023 157.451Z" stroke="url(#paint18_linear_1640_13475)" stroke-width="1.2"/>
</g>
<path d="M107.023 157.452C110.958 161.387 122.263 156.462 132.273 146.452C142.283 136.442 147.207 125.138 143.273 121.203C139.338 117.268 128.033 122.193 118.023 132.203C108.013 142.213 103.088 153.517 107.023 157.452Z" fill="url(#paint19_linear_1640_13475)"/>
<g filter="url(#filter3_i_1640_13475)">
<path d="M111.524 139.82C113.148 137.552 115.072 135.24 117.256 132.98C117.952 134.4 118.632 135.972 119.256 137.636C120.98 142.248 122.44 148 122.644 154C122.884 160.936 120.588 167.22 117.736 172.16C114.892 177.092 111.344 180.956 108.664 183.12C107.837 183.756 106.794 184.044 105.757 183.922C104.721 183.799 103.774 183.277 103.117 182.466C102.461 181.655 102.147 180.62 102.243 179.581C102.339 178.541 102.838 177.581 103.632 176.904C105.536 175.364 108.444 172.264 110.804 168.168C113.16 164.088 114.82 159.284 114.652 154.276C114.48 149.34 113.264 144.456 111.76 140.436L111.524 139.82Z" fill="#24A4DC"/>
<path d="M111.524 139.82C113.148 137.552 115.072 135.24 117.256 132.98C117.952 134.4 118.632 135.972 119.256 137.636C120.98 142.248 122.44 148 122.644 154C122.884 160.936 120.588 167.22 117.736 172.16C114.892 177.092 111.344 180.956 108.664 183.12C107.837 183.756 106.794 184.044 105.757 183.922C104.721 183.799 103.774 183.277 103.117 182.466C102.461 181.655 102.147 180.62 102.243 179.581C102.339 178.541 102.838 177.581 103.632 176.904C105.536 175.364 108.444 172.264 110.804 168.168C113.16 164.088 114.82 159.284 114.652 154.276C114.48 149.34 113.264 144.456 111.76 140.436L111.524 139.82Z" fill="url(#paint20_linear_1640_13475)"/>
<path d="M111.524 139.82C113.148 137.552 115.072 135.24 117.256 132.98C117.952 134.4 118.632 135.972 119.256 137.636C120.98 142.248 122.44 148 122.644 154C122.884 160.936 120.588 167.22 117.736 172.16C114.892 177.092 111.344 180.956 108.664 183.12C107.837 183.756 106.794 184.044 105.757 183.922C104.721 183.799 103.774 183.277 103.117 182.466C102.461 181.655 102.147 180.62 102.243 179.581C102.339 178.541 102.838 177.581 103.632 176.904C105.536 175.364 108.444 172.264 110.804 168.168C113.16 164.088 114.82 159.284 114.652 154.276C114.48 149.34 113.264 144.456 111.76 140.436L111.524 139.82Z" fill="url(#paint21_radial_1640_13475)"/>
<path d="M111.524 139.82C113.148 137.552 115.072 135.24 117.256 132.98C117.952 134.4 118.632 135.972 119.256 137.636C120.98 142.248 122.44 148 122.644 154C122.884 160.936 120.588 167.22 117.736 172.16C114.892 177.092 111.344 180.956 108.664 183.12C107.837 183.756 106.794 184.044 105.757 183.922C104.721 183.799 103.774 183.277 103.117 182.466C102.461 181.655 102.147 180.62 102.243 179.581C102.339 178.541 102.838 177.581 103.632 176.904C105.536 175.364 108.444 172.264 110.804 168.168C113.16 164.088 114.82 159.284 114.652 154.276C114.48 149.34 113.264 144.456 111.76 140.436L111.524 139.82Z" fill="url(#paint22_radial_1640_13475)"/>
</g>
<path d="M117.992 132.231L118.024 132.199C119.984 130.233 122.072 128.399 124.276 126.711C124.856 128.071 125.676 129.835 126.652 131.655C127.996 134.167 129.492 136.527 130.904 138.055C131.796 139.023 132.576 139.155 135.04 139.131L135.36 139.127C137.696 139.095 141.652 139.047 144.976 142.435C148.344 145.747 148.232 149.555 148.164 151.883C148.156 152.179 148.148 152.455 148.148 152.699V161.251C148.148 161.516 148.201 161.778 148.303 162.023C148.405 162.267 148.555 162.489 148.744 162.675L151.268 165.163C152.024 165.908 152.453 166.922 152.461 167.983C152.469 169.044 152.055 170.065 151.31 170.821C150.565 171.577 149.551 172.006 148.49 172.014C147.429 172.022 146.408 171.608 145.652 170.863C142.892 168.411 140.092 165.367 140.172 160.475L140.148 152.699C140.148 152.323 140.156 151.955 140.16 151.635V151.603C140.164 151.259 140.172 150.967 140.168 150.687C140.168 150.127 140.144 149.751 140.092 149.451C140.017 148.936 139.755 148.466 139.356 148.131L139.316 148.091L139.276 148.051C138.46 147.207 137.748 147.103 135.116 147.131H135.004C132.532 147.155 128.444 147.195 125.02 143.471C122.924 141.199 121.048 138.143 119.596 135.431C119.035 134.378 118.5 133.311 117.992 132.231Z" fill="#FA3F99"/>
<path d="M117.992 132.231L118.024 132.199C119.984 130.233 122.072 128.399 124.276 126.711C124.856 128.071 125.676 129.835 126.652 131.655C127.996 134.167 129.492 136.527 130.904 138.055C131.796 139.023 132.576 139.155 135.04 139.131L135.36 139.127C137.696 139.095 141.652 139.047 144.976 142.435C148.344 145.747 148.232 149.555 148.164 151.883C148.156 152.179 148.148 152.455 148.148 152.699V161.251C148.148 161.516 148.201 161.778 148.303 162.023C148.405 162.267 148.555 162.489 148.744 162.675L151.268 165.163C152.024 165.908 152.453 166.922 152.461 167.983C152.469 169.044 152.055 170.065 151.31 170.821C150.565 171.577 149.551 172.006 148.49 172.014C147.429 172.022 146.408 171.608 145.652 170.863C142.892 168.411 140.092 165.367 140.172 160.475L140.148 152.699C140.148 152.323 140.156 151.955 140.16 151.635V151.603C140.164 151.259 140.172 150.967 140.168 150.687C140.168 150.127 140.144 149.751 140.092 149.451C140.017 148.936 139.755 148.466 139.356 148.131L139.316 148.091L139.276 148.051C138.46 147.207 137.748 147.103 135.116 147.131H135.004C132.532 147.155 128.444 147.195 125.02 143.471C122.924 141.199 121.048 138.143 119.596 135.431C119.035 134.378 118.5 133.311 117.992 132.231Z" fill="url(#paint23_radial_1640_13475)"/>
<path d="M117.992 132.231L118.024 132.199C119.984 130.233 122.072 128.399 124.276 126.711C124.856 128.071 125.676 129.835 126.652 131.655C127.996 134.167 129.492 136.527 130.904 138.055C131.796 139.023 132.576 139.155 135.04 139.131L135.36 139.127C137.696 139.095 141.652 139.047 144.976 142.435C148.344 145.747 148.232 149.555 148.164 151.883C148.156 152.179 148.148 152.455 148.148 152.699V161.251C148.148 161.516 148.201 161.778 148.303 162.023C148.405 162.267 148.555 162.489 148.744 162.675L151.268 165.163C152.024 165.908 152.453 166.922 152.461 167.983C152.469 169.044 152.055 170.065 151.31 170.821C150.565 171.577 149.551 172.006 148.49 172.014C147.429 172.022 146.408 171.608 145.652 170.863C142.892 168.411 140.092 165.367 140.172 160.475L140.148 152.699C140.148 152.323 140.156 151.955 140.16 151.635V151.603C140.164 151.259 140.172 150.967 140.168 150.687C140.168 150.127 140.144 149.751 140.092 149.451C140.017 148.936 139.755 148.466 139.356 148.131L139.316 148.091L139.276 148.051C138.46 147.207 137.748 147.103 135.116 147.131H135.004C132.532 147.155 128.444 147.195 125.02 143.471C122.924 141.199 121.048 138.143 119.596 135.431C119.035 134.378 118.5 133.311 117.992 132.231Z" fill="url(#paint24_radial_1640_13475)"/>
<path d="M117.992 132.231L118.024 132.199C119.984 130.233 122.072 128.399 124.276 126.711C124.856 128.071 125.676 129.835 126.652 131.655C127.996 134.167 129.492 136.527 130.904 138.055C131.796 139.023 132.576 139.155 135.04 139.131L135.36 139.127C137.696 139.095 141.652 139.047 144.976 142.435C148.344 145.747 148.232 149.555 148.164 151.883C148.156 152.179 148.148 152.455 148.148 152.699V161.251C148.148 161.516 148.201 161.778 148.303 162.023C148.405 162.267 148.555 162.489 148.744 162.675L151.268 165.163C152.024 165.908 152.453 166.922 152.461 167.983C152.469 169.044 152.055 170.065 151.31 170.821C150.565 171.577 149.551 172.006 148.49 172.014C147.429 172.022 146.408 171.608 145.652 170.863C142.892 168.411 140.092 165.367 140.172 160.475L140.148 152.699C140.148 152.323 140.156 151.955 140.16 151.635V151.603C140.164 151.259 140.172 150.967 140.168 150.687C140.168 150.127 140.144 149.751 140.092 149.451C140.017 148.936 139.755 148.466 139.356 148.131L139.316 148.091L139.276 148.051C138.46 147.207 137.748 147.103 135.116 147.131H135.004C132.532 147.155 128.444 147.195 125.02 143.471C122.924 141.199 121.048 138.143 119.596 135.431C119.035 134.378 118.5 133.311 117.992 132.231Z" fill="url(#paint25_radial_1640_13475)"/>
<g filter="url(#filter4_f_1640_13475)">
<path d="M145.084 154.641V161.361C145.084 162.909 145.684 164.401 146.76 165.517L148.708 167.541" stroke="#FF5CAC" stroke-width="1.6" stroke-linecap="round"/>
</g>
<g filter="url(#filter5_i_1640_13475)">
<path d="M187.904 138.641C189.828 141.241 191.404 143.665 192.492 146.029C190.74 148.869 189.14 152.401 188.368 156.053C187.068 162.181 187.944 168.973 194.004 175.333C194.366 175.713 194.65 176.161 194.84 176.651C195.029 177.141 195.12 177.664 195.107 178.189C195.095 178.714 194.979 179.232 194.766 179.712C194.554 180.192 194.248 180.626 193.868 180.989C193.488 181.351 193.04 181.635 192.55 181.824C192.06 182.014 191.537 182.105 191.012 182.092C190.487 182.079 189.969 181.963 189.489 181.751C189.008 181.538 188.574 181.233 188.212 180.853C180.072 172.313 178.78 162.713 180.54 154.397C181.86 148.157 184.88 142.645 187.904 138.641Z" fill="#2BBAFE"/>
<path d="M187.904 138.641C189.828 141.241 191.404 143.665 192.492 146.029C190.74 148.869 189.14 152.401 188.368 156.053C187.068 162.181 187.944 168.973 194.004 175.333C194.366 175.713 194.65 176.161 194.84 176.651C195.029 177.141 195.12 177.664 195.107 178.189C195.095 178.714 194.979 179.232 194.766 179.712C194.554 180.192 194.248 180.626 193.868 180.989C193.488 181.351 193.04 181.635 192.55 181.824C192.06 182.014 191.537 182.105 191.012 182.092C190.487 182.079 189.969 181.963 189.489 181.751C189.008 181.538 188.574 181.233 188.212 180.853C180.072 172.313 178.78 162.713 180.54 154.397C181.86 148.157 184.88 142.645 187.904 138.641Z" fill="url(#paint26_linear_1640_13475)"/>
</g>
<path d="M187.904 138.641C189.828 141.241 191.404 143.665 192.492 146.029C190.74 148.869 189.14 152.401 188.368 156.053C187.068 162.181 187.944 168.973 194.004 175.333C194.366 175.713 194.65 176.161 194.84 176.651C195.029 177.141 195.12 177.664 195.107 178.189C195.095 178.714 194.979 179.232 194.766 179.712C194.554 180.192 194.248 180.626 193.868 180.989C193.488 181.351 193.04 181.635 192.55 181.824C192.06 182.014 191.537 182.105 191.012 182.092C190.487 182.079 189.969 181.963 189.489 181.751C189.008 181.538 188.574 181.233 188.212 180.853C180.072 172.313 178.78 162.713 180.54 154.397C181.86 148.157 184.88 142.645 187.904 138.641Z" fill="url(#paint27_radial_1640_13475)"/>
<g filter="url(#filter6_f_1640_13475)">
<path d="M188.084 150.011C185.316 154.595 182.284 166.539 192.336 177.639" stroke="url(#paint28_linear_1640_13475)" stroke-width="2.4" stroke-linecap="round"/>
</g>
<path d="M167.428 150.598C167.299 150.683 167.17 150.767 167.04 150.85C166.984 151.08 166.924 151.309 166.86 151.538C166.168 153.978 165.06 156.25 163.968 157.622C163.402 158.337 162.586 158.811 161.685 158.947C160.784 159.084 159.864 158.874 159.112 158.359C158.359 157.845 157.83 157.063 157.631 156.174C157.432 155.284 157.578 154.352 158.04 153.566L157.928 153.554C159.956 153.482 164.592 152.37 167.132 150.762C167.227 150.701 167.326 150.647 167.428 150.598Z" fill="#2A82D3"/>
<path d="M167.428 150.598C167.299 150.683 167.17 150.767 167.04 150.85C166.984 151.08 166.924 151.309 166.86 151.538C166.168 153.978 165.06 156.25 163.968 157.622C163.402 158.337 162.586 158.811 161.685 158.947C160.784 159.084 159.864 158.874 159.112 158.359C158.359 157.845 157.83 157.063 157.631 156.174C157.432 155.284 157.578 154.352 158.04 153.566L157.928 153.554C159.956 153.482 164.592 152.37 167.132 150.762C167.227 150.701 167.326 150.647 167.428 150.598Z" fill="url(#paint29_radial_1640_13475)"/>
<path d="M167.428 150.598C167.299 150.683 167.17 150.767 167.04 150.85C166.984 151.08 166.924 151.309 166.86 151.538C166.168 153.978 165.06 156.25 163.968 157.622C163.402 158.337 162.586 158.811 161.685 158.947C160.784 159.084 159.864 158.874 159.112 158.359C158.359 157.845 157.83 157.063 157.631 156.174C157.432 155.284 157.578 154.352 158.04 153.566L157.928 153.554C159.956 153.482 164.592 152.37 167.132 150.762C167.227 150.701 167.326 150.647 167.428 150.598Z" fill="url(#paint30_radial_1640_13475)"/>
<path d="M166.768 141.779C164.952 137.363 160.36 135.891 156.736 136.715C155.669 136.946 154.659 137.386 153.763 138.01C152.868 138.634 152.105 139.43 151.52 140.351C150.621 141.824 150.211 143.543 150.348 145.263H157.316C157.287 145.065 157.3 144.862 157.356 144.669C157.411 144.476 157.506 144.297 157.636 144.143C158.992 142.623 160.852 144.511 160.4 146.131C161.82 145.491 165.1 143.495 166.768 141.779Z" fill="url(#paint31_radial_1640_13475)"/>
<g filter="url(#filter7_f_1640_13475)">
<path d="M161.768 149.89C159.984 150.23 156.528 150.09 154.896 146.69C152.836 142.398 158.452 137.638 163.132 142.146" stroke="url(#paint32_linear_1640_13475)" stroke-width="2" stroke-linecap="round"/>
</g>
<g filter="url(#filter8_f_1640_13475)">
<path d="M177.896 133.758C176.732 136.51 172.924 144.71 166.024 149.01" stroke="url(#paint33_linear_1640_13475)" stroke-width="2" stroke-linecap="round"/>
</g>
<defs>
<filter id="filter0_i_1640_13475" x="153.314" y="108" width="52.4584" height="51.7666" filterUnits="userSpaceOnUse" color-interpolation-filters="sRGB">
<feFlood flood-opacity="0" result="BackgroundImageFix"/>
<feBlend mode="normal" in="SourceGraphic" in2="BackgroundImageFix" result="shape"/>
<feColorMatrix in="SourceAlpha" type="matrix" values="0 0 0 0 0 0 0 0 0 0 0 0 0 0 0 0 0 0 127 0" result="hardAlpha"/>
<feOffset dx="-1"/>
<feGaussianBlur stdDeviation="1.5"/>
<feComposite in2="hardAlpha" operator="arithmetic" k2="-1" k3="1"/>
<feColorMatrix type="matrix" values="0 0 0 0 0.945098 0 0 0 0 0.698039 0 0 0 0 0.380392 0 0 0 1 0"/>
<feBlend mode="normal" in2="shape" result="effect1_innerShadow_1640_13475"/>
</filter>
<filter id="filter1_f_1640_13475" x="153.863" y="118.046" width="42.5597" height="42.56" filterUnits="userSpaceOnUse" color-interpolation-filters="sRGB">
<feFlood flood-opacity="0" result="BackgroundImageFix"/>
<feBlend mode="normal" in="SourceGraphic" in2="BackgroundImageFix" result="shape"/>
<feGaussianBlur stdDeviation="0.4" result="effect1_foregroundBlur_1640_13475"/>
</filter>
<filter id="filter2_f_1640_13475" x="104.668" y="118.847" width="40.9597" height="40.9592" filterUnits="userSpaceOnUse" color-interpolation-filters="sRGB">
<feFlood flood-opacity="0" result="BackgroundImageFix"/>
<feBlend mode="normal" in="SourceGraphic" in2="BackgroundImageFix" result="shape"/>
<feGaussianBlur stdDeviation="0.2" result="effect1_foregroundBlur_1640_13475"/>
</filter>
<filter id="filter3_i_1640_13475" x="102.226" y="132.98" width="21.0352" height="50.9688" filterUnits="userSpaceOnUse" color-interpolation-filters="sRGB">
<feFlood flood-opacity="0" result="BackgroundImageFix"/>
<feBlend mode="normal" in="SourceGraphic" in2="BackgroundImageFix" result="shape"/>
<feColorMatrix in="SourceAlpha" type="matrix" values="0 0 0 0 0 0 0 0 0 0 0 0 0 0 0 0 0 0 127 0" result="hardAlpha"/>
<feOffset dx="0.6"/>
<feGaussianBlur stdDeviation="1"/>
<feComposite in2="hardAlpha" operator="arithmetic" k2="-1" k3="1"/>
<feColorMatrix type="matrix" values="0 0 0 0 0.054902 0 0 0 0 0.462745 0 0 0 0 0.701961 0 0 0 1 0"/>
<feBlend mode="normal" in2="shape" result="effect1_innerShadow_1640_13475"/>
</filter>
<filter id="filter4_f_1640_13475" x="141.884" y="151.441" width="10.024" height="19.3" filterUnits="userSpaceOnUse" color-interpolation-filters="sRGB">
<feFlood flood-opacity="0" result="BackgroundImageFix"/>
<feBlend mode="normal" in="SourceGraphic" in2="BackgroundImageFix" result="shape"/>
<feGaussianBlur stdDeviation="1.2" result="effect1_foregroundBlur_1640_13475"/>
</filter>
<filter id="filter5_i_1640_13475" x="179.852" y="138.641" width="16.457" height="44.6521" filterUnits="userSpaceOnUse" color-interpolation-filters="sRGB">
<feFlood flood-opacity="0" result="BackgroundImageFix"/>
<feBlend mode="normal" in="SourceGraphic" in2="BackgroundImageFix" result="shape"/>
<feColorMatrix in="SourceAlpha" type="matrix" values="0 0 0 0 0 0 0 0 0 0 0 0 0 0 0 0 0 0 127 0" result="hardAlpha"/>
<feOffset dx="1.2" dy="1.2"/>
<feGaussianBlur stdDeviation="1.7"/>
<feComposite in2="hardAlpha" operator="arithmetic" k2="-1" k3="1"/>
<feColorMatrix type="matrix" values="0 0 0 0 0.0705882 0 0 0 0 0.329412 0 0 0 0 0.6 0 0 0 1 0"/>
<feBlend mode="normal" in2="shape" result="effect1_innerShadow_1640_13475"/>
</filter>
<filter id="filter6_f_1640_13475" x="181.592" y="146.211" width="14.5441" height="35.2283" filterUnits="userSpaceOnUse" color-interpolation-filters="sRGB">
<feFlood flood-opacity="0" result="BackgroundImageFix"/>
<feBlend mode="normal" in="SourceGraphic" in2="BackgroundImageFix" result="shape"/>
<feGaussianBlur stdDeviation="1.3" result="effect1_foregroundBlur_1640_13475"/>
</filter>
<filter id="filter7_f_1640_13475" x="150.456" y="136.324" width="16.6763" height="17.6875" filterUnits="userSpaceOnUse" color-interpolation-filters="sRGB">
<feFlood flood-opacity="0" result="BackgroundImageFix"/>
<feBlend mode="normal" in="SourceGraphic" in2="BackgroundImageFix" result="shape"/>
<feGaussianBlur stdDeviation="1.5" result="effect1_foregroundBlur_1640_13475"/>
</filter>
<filter id="filter8_f_1640_13475" x="162.024" y="129.758" width="19.8724" height="23.252" filterUnits="userSpaceOnUse" color-interpolation-filters="sRGB">
<feFlood flood-opacity="0" result="BackgroundImageFix"/>
<feBlend mode="normal" in="SourceGraphic" in2="BackgroundImageFix" result="shape"/>
<feGaussianBlur stdDeviation="1.5" result="effect1_foregroundBlur_1640_13475"/>
</filter>
<radialGradient id="paint0_radial_1640_13475" cx="0" cy="0" r="1" gradientUnits="userSpaceOnUse" gradientTransform="translate(136.4 125.387) rotate(-132.541) scale(28.8412 20.9314)">
<stop stop-color="#FFE94C"/>
<stop offset="1" stop-color="#FFE94C" stop-opacity="0"/>
</radialGradient>
<radialGradient id="paint1_radial_1640_13475" cx="0" cy="0" r="1" gradientUnits="userSpaceOnUse" gradientTransform="translate(109.149 108.007) rotate(61.118) scale(53.8288 54.3388)">
<stop offset="0.684" stop-color="#B9706D" stop-opacity="0"/>
<stop offset="1" stop-color="#B9706D"/>
</radialGradient>
<radialGradient id="paint2_radial_1640_13475" cx="0" cy="0" r="1" gradientUnits="userSpaceOnUse" gradientTransform="translate(130.648 135.387) rotate(176.876) scale(36.705 36.762)">
<stop offset="0.839" stop-color="#F3C893" stop-opacity="0"/>
<stop offset="1" stop-color="#F3C893"/>
</radialGradient>
<radialGradient id="paint3_radial_1640_13475" cx="0" cy="0" r="1" gradientUnits="userSpaceOnUse" gradientTransform="translate(187.696 138.131) rotate(-47.8156) scale(29.9492 24.972)">
<stop stop-color="#FFE76D"/>
<stop offset="1" stop-color="#FFE76D" stop-opacity="0"/>
</radialGradient>
<radialGradient id="paint4_radial_1640_13475" cx="0" cy="0" r="1" gradientUnits="userSpaceOnUse" gradientTransform="translate(156.968 116.379) rotate(27.79) scale(12.1231 12.1419)">
<stop stop-color="#D6BE6F"/>
<stop offset="1" stop-color="#D6BE6F" stop-opacity="0"/>
</radialGradient>
<linearGradient id="paint5_linear_1640_13475" x1="192.108" y1="151.245" x2="176.125" y2="172.913" gradientUnits="userSpaceOnUse">
<stop stop-color="#ECB43E"/>
<stop offset="1" stop-color="#925960"/>
</linearGradient>
<linearGradient id="paint6_linear_1640_13475" x1="180.418" y1="145.634" x2="204.267" y2="182.698" gradientUnits="userSpaceOnUse">
<stop stop-color="#572943"/>
<stop offset="1" stop-color="#4D2C30"/>
</linearGradient>
<linearGradient id="paint7_linear_1640_13475" x1="133.648" y1="159.889" x2="139.148" y2="180.641" gradientUnits="userSpaceOnUse">
<stop stop-color="#C9136C"/>
<stop offset="1" stop-color="#C9136C" stop-opacity="0"/>
</linearGradient>
<linearGradient id="paint8_linear_1640_13475" x1="174.396" y1="135.639" x2="154.396" y2="158.987" gradientUnits="userSpaceOnUse">
<stop offset="0.253" stop-color="#1DA2CD"/>
<stop offset="1" stop-color="#255EB1"/>
</linearGradient>
<linearGradient id="paint9_linear_1640_13475" x1="180.896" y1="132.511" x2="176.772" y2="136.011" gradientUnits="userSpaceOnUse">
<stop stop-color="#0D8CBA"/>
<stop offset="1" stop-color="#0D8CBA" stop-opacity="0"/>
</linearGradient>
<radialGradient id="paint10_radial_1640_13475" cx="0" cy="0" r="1" gradientUnits="userSpaceOnUse" gradientTransform="translate(167.4 133.887) rotate(119.705) scale(22.4503 14.546)">
<stop offset="0.835" stop-color="#3165CF" stop-opacity="0"/>
<stop offset="1" stop-color="#3165CF"/>
</radialGradient>
<radialGradient id="paint11_radial_1640_13475" cx="0" cy="0" r="1" gradientUnits="userSpaceOnUse" gradientTransform="translate(173.568 146.607) rotate(-168.317) scale(25.6283 25.0747)">
<stop offset="0.808" stop-color="#2471AD" stop-opacity="0"/>
<stop offset="0.95" stop-color="#2471AD"/>
</radialGradient>
<radialGradient id="paint12_radial_1640_13475" cx="0" cy="0" r="1" gradientUnits="userSpaceOnUse" gradientTransform="translate(152.4 186.761) rotate(130.855) scale(6.11482)">
<stop stop-color="#43C7F4"/>
<stop offset="1" stop-color="#2D64CF"/>
</radialGradient>
<radialGradient id="paint13_radial_1640_13475" cx="0" cy="0" r="1" gradientUnits="userSpaceOnUse" gradientTransform="translate(163.494 170.316) rotate(140.042) scale(5.13088)">
<stop stop-color="#FF48A3"/>
<stop offset="1" stop-color="#DB1D93"/>
</radialGradient>
<radialGradient id="paint14_radial_1640_13475" cx="0" cy="0" r="1" gradientUnits="userSpaceOnUse" gradientTransform="translate(180.113 182.672) rotate(144.498) scale(5.75788)">
<stop stop-color="#F7C851"/>
<stop offset="1" stop-color="#D97654"/>
</radialGradient>
<radialGradient id="paint15_radial_1640_13475" cx="0" cy="0" r="1" gradientUnits="userSpaceOnUse" gradientTransform="translate(134.806 156.949) rotate(-96.843) scale(4.72112)">
<stop stop-color="#D48D3B"/>
<stop offset="1" stop-color="#B46518"/>
</radialGradient>
<radialGradient id="paint16_radial_1640_13475" cx="0" cy="0" r="1" gradientUnits="userSpaceOnUse" gradientTransform="translate(123.461 179.137) rotate(138.621) scale(3.49832)">
<stop stop-color="#F8AC4B"/>
<stop offset="1" stop-color="#E5A437"/>
</radialGradient>
<radialGradient id="paint17_radial_1640_13475" cx="0" cy="0" r="1" gradientUnits="userSpaceOnUse" gradientTransform="translate(121.366 180.041) rotate(-25.755) scale(3.95544)">
<stop offset="0.757" stop-color="#EB9530" stop-opacity="0"/>
<stop offset="1" stop-color="#EB9530"/>
</radialGradient>
<linearGradient id="paint18_linear_1640_13475" x1="119.186" y1="125.993" x2="135.169" y2="147.662" gradientUnits="userSpaceOnUse">
<stop stop-color="#EABE3F"/>
<stop offset="1" stop-color="#976061"/>
</linearGradient>
<linearGradient id="paint19_linear_1640_13475" x1="143.275" y1="121.2" x2="107.023" y2="157.452" gradientUnits="userSpaceOnUse">
<stop stop-color="#5E2B40"/>
<stop offset="1" stop-color="#6E4546"/>
</linearGradient>
<linearGradient id="paint20_linear_1640_13475" x1="103.352" y1="185.056" x2="110.568" y2="178.412" gradientUnits="userSpaceOnUse">
<stop stop-color="#3067D9"/>
<stop offset="1" stop-color="#3067D9" stop-opacity="0"/>
</linearGradient>
<radialGradient id="paint21_radial_1640_13475" cx="0" cy="0" r="1" gradientUnits="userSpaceOnUse" gradientTransform="translate(103.28 151.9) rotate(-5.85598) scale(21.2039 45.3648)">
<stop offset="0.655" stop-color="#47CEFA" stop-opacity="0"/>
<stop offset="1" stop-color="#47CEFA"/>
</radialGradient>
<radialGradient id="paint22_radial_1640_13475" cx="0" cy="0" r="1" gradientUnits="userSpaceOnUse" gradientTransform="translate(110.285 140.622) rotate(16.44) scale(6.03844 12.7967)">
<stop stop-color="#1569A5"/>
<stop offset="1" stop-color="#1569A5" stop-opacity="0"/>
</radialGradient>
<radialGradient id="paint23_radial_1640_13475" cx="0" cy="0" r="1" gradientUnits="userSpaceOnUse" gradientTransform="translate(117.989 130.388) rotate(63.941) scale(26.8408 6.76436)">
<stop stop-color="#A80963"/>
<stop offset="1" stop-color="#A80963" stop-opacity="0"/>
</radialGradient>
<radialGradient id="paint24_radial_1640_13475" cx="0" cy="0" r="1" gradientUnits="userSpaceOnUse" gradientTransform="translate(150.736 141.159) rotate(92.782) scale(25.4763 10.618)">
<stop offset="0.198" stop-color="#A80963"/>
<stop offset="1" stop-color="#A80963" stop-opacity="0"/>
</radialGradient>
<radialGradient id="paint25_radial_1640_13475" cx="0" cy="0" r="1" gradientUnits="userSpaceOnUse" gradientTransform="translate(135.955 161.744) rotate(-83.904) scale(15.0126 6.49964)">
<stop stop-color="#A80963"/>
<stop offset="1" stop-color="#A80963" stop-opacity="0"/>
</radialGradient>
<linearGradient id="paint26_linear_1640_13475" x1="193.148" y1="140.641" x2="187.48" y2="148.889" gradientUnits="userSpaceOnUse">
<stop stop-color="#184E8C"/>
<stop offset="1" stop-color="#184E8C" stop-opacity="0"/>
</linearGradient>
<radialGradient id="paint27_radial_1640_13475" cx="0" cy="0" r="1" gradientUnits="userSpaceOnUse" gradientTransform="translate(195.108 171.265) rotate(164.748) scale(6.17709 20.3042)">
<stop stop-color="#4BDCFF"/>
<stop offset="1" stop-color="#4BDCFF" stop-opacity="0"/>
</radialGradient>
<linearGradient id="paint28_linear_1640_13475" x1="192.336" y1="177.639" x2="188.864" y2="150.011" gradientUnits="userSpaceOnUse">
<stop stop-color="#4BDAFF"/>
<stop offset="1" stop-color="#4BDAFF" stop-opacity="0"/>
</linearGradient>
<radialGradient id="paint29_radial_1640_13475" cx="0" cy="0" r="1" gradientUnits="userSpaceOnUse" gradientTransform="translate(162.084 151.51) rotate(76.1713) scale(4.18375 13.7235)">
<stop offset="0.306" stop-color="#1E58A8"/>
<stop offset="1" stop-color="#1E58A8" stop-opacity="0"/>
</radialGradient>
<radialGradient id="paint30_radial_1640_13475" cx="0" cy="0" r="1" gradientUnits="userSpaceOnUse" gradientTransform="translate(166.96 153.262) rotate(163.015) scale(9.84193 13.847)">
<stop offset="0.59" stop-color="#1E58A8" stop-opacity="0"/>
<stop offset="1" stop-color="#1E58A8"/>
</radialGradient>
<radialGradient id="paint31_radial_1640_13475" cx="0" cy="0" r="1" gradientUnits="userSpaceOnUse" gradientTransform="translate(162.46 147.107) rotate(-92.629) scale(6.13145 5.04038)">
<stop offset="0.187" stop-color="#3258A2"/>
<stop offset="1" stop-color="#3258A2" stop-opacity="0"/>
</radialGradient>
<linearGradient id="paint32_linear_1640_13475" x1="157.772" y1="139.086" x2="158.548" y2="150.01" gradientUnits="userSpaceOnUse">
<stop stop-color="#46B4E2"/>
<stop offset="1" stop-color="#46B4E2" stop-opacity="0"/>
</linearGradient>
<linearGradient id="paint33_linear_1640_13475" x1="177.148" y1="133.762" x2="167.788" y2="151.518" gradientUnits="userSpaceOnUse">
<stop stop-color="#46B4E2"/>
<stop offset="1" stop-color="#46B4E2" stop-opacity="0"/>
</linearGradient>
</defs>
</svg>
