<svg width="33" height="33" viewBox="0 0 33 33" fill="none" xmlns="http://www.w3.org/2000/svg">
<path d="M16.4125 12.7475C17.7155 12.7485 18.9759 12.2839 19.9666 11.4375C20.9572 10.5911 21.6129 9.41862 21.8153 8.13146C22.0177 6.8443 21.7535 5.52717 21.0705 4.41758C20.3874 3.308 19.3304 2.47897 18.09 2.08C18.44 1.58 20.39 0.895001 22.235 1.395C22.9857 1.60577 23.6843 1.97044 24.2864 2.46583C24.8886 2.96122 25.381 3.57648 25.7325 4.2725C26.51 2.825 27.585 1.4875 29.17 0.890001C30.245 0.485001 31.4 0.467501 32.475 0.0825005C32.085 1.155 32.0625 2.31 31.655 3.3825C31.0525 4.9675 29.7075 6.0375 28.2575 6.81C28.9518 7.1626 29.5651 7.65589 30.0584 8.25847C30.5516 8.86105 30.914 9.55971 31.1225 10.31C31.6225 12.1475 30.9175 14.09 30.4225 14.4525C30.0429 13.2008 29.2275 12.1265 28.1241 11.4242C27.0207 10.7219 25.7022 10.438 24.4075 10.624C23.1128 10.8099 21.9276 11.4535 21.0665 12.4379C20.2053 13.4224 19.7253 14.6828 19.7133 15.9907C19.7013 17.2986 20.1582 18.5676 21.0011 19.5677C21.844 20.5678 23.0173 21.2329 24.3083 21.4426C25.5994 21.6523 26.9228 21.3926 28.0389 20.7106C29.1551 20.0287 29.99 18.9695 30.3925 17.725C30.8925 18.075 31.58 20.0275 31.0775 21.8725C30.866 22.621 30.5009 23.3172 30.0055 23.9168C29.5101 24.5164 28.8952 25.0062 28.2 25.355C29.6475 26.135 30.9875 27.21 31.585 28.795C31.99 29.87 32.0075 31.025 32.3925 32.1C31.3175 31.71 30.1625 31.6875 29.09 31.28C27.5075 30.6775 26.4375 29.3325 25.665 27.8825C25.312 28.5763 24.8185 29.189 24.216 29.6818C23.6135 30.1746 22.915 30.5367 22.165 30.745C20.3275 31.245 18.385 30.5425 18.0225 30.0475C19.2748 29.6679 20.3498 28.8522 21.0526 27.7483C21.7554 26.6444 22.0395 25.3253 21.8536 24.0299C21.6676 22.7346 21.0238 21.5487 20.0389 20.6871C19.0539 19.8255 17.7929 19.3452 16.4843 19.3332C15.1758 19.3212 13.9062 19.7783 12.9056 20.6217C11.905 21.4651 11.2396 22.639 11.0299 23.9307C10.8202 25.2224 11.0801 26.5465 11.7626 27.6631C12.445 28.7797 13.5048 29.615 14.75 30.0175C14.3975 30.5175 12.4475 31.2025 10.6025 30.7025C9.85422 30.4906 9.15819 30.1253 8.55866 29.63C7.95913 29.1346 7.46919 28.5199 7.12 27.825C6.34 29.2725 5.265 30.6125 3.68 31.21C2.605 31.6125 1.45 31.63 0.375 32.015C0.765 30.9425 0.7875 29.7875 1.195 28.715C1.7975 27.1325 3.1425 26.0625 4.5925 25.29C3.89847 24.9374 3.2855 24.4441 2.79266 23.8415C2.29982 23.2389 1.93791 22.5402 1.73 21.79C1.23 19.9525 1.9325 18.01 2.4275 17.6475C2.80741 18.899 3.62294 19.973 4.72639 20.675C5.82983 21.3771 7.14822 21.6608 8.44276 21.4746C9.73731 21.2885 10.9224 20.645 11.7834 19.6605C12.6444 18.676 13.1243 17.4158 13.1363 16.108C13.1483 14.8002 12.6915 13.5313 11.8487 12.5312C11.0059 11.5312 9.83279 10.866 8.54187 10.6562C7.25095 10.4464 5.92759 10.7059 4.81146 11.3876C3.69534 12.0693 2.86027 13.1282 2.4575 14.3725C1.9575 14.0225 1.27 12.07 1.7725 10.2275C1.98397 9.4787 2.34902 8.78212 2.84443 8.18213C3.33984 7.58213 3.95474 7.09185 4.65 6.7425C3.2025 5.965 1.8625 4.89 1.265 3.3025C0.862499 2.23 0.842499 1.075 0.459999 0C1.5325 0.39 2.68749 0.410002 3.75999 0.820002C5.34249 1.4225 6.4125 2.765 7.185 4.2175C7.53747 3.5231 8.03072 2.90973 8.63332 2.41646C9.23591 1.92319 9.93465 1.56084 10.685 1.3525C12.5225 0.852501 14.465 1.555 14.8275 2.0525C13.5757 2.43617 12.5031 3.25632 11.8047 4.36386C11.1064 5.4714 10.8287 6.79276 11.0221 8.08772C11.2155 9.38267 11.8672 10.5652 12.8587 11.4203C13.8502 12.2755 15.1157 12.7464 16.425 12.7475" fill="#A7B1B1"/>
</svg>
