<?xml version="1.0" encoding="UTF-8"?>
<svg version="1.1" xmlns="http://www.w3.org/2000/svg" width="3074" height="1975">
<path d="M0 0 C8.61150688 1.69963952 17.20694037 3.4728331 25.79345703 5.29418945 C27.42321534 5.63805517 29.05375012 5.97826238 30.68505859 6.31469727 C50.0628059 10.31573103 66.69581891 15.98117481 82 29 C82.66515625 29.51949219 83.3303125 30.03898438 84.015625 30.57421875 C93.07780217 37.88658529 99.82587493 47.937097 106.125 57.625 C106.50325928 58.20451416 106.88151855 58.78402832 107.27124023 59.38110352 C109.05178253 62.19508134 110.46686719 64.68811435 111 68 C113.88825951 65.39877249 115.76900624 62.37538283 117.875 59.125 C131.11759759 39.46031374 151.25269633 25.60698538 174.44921875 20.67578125 C178.65542028 19.87526105 182.72177448 19.18533829 187 19 C188.25683594 18.92265625 188.25683594 18.92265625 189.5390625 18.84375 C205.61623667 18.31227317 226.44932734 21.07104347 239 32 C239.33 32.99 239.66 33.98 240 35 C239.00742188 35.40089844 238.01484375 35.80179688 236.9921875 36.21484375 C212.37223291 46.40882916 193.87927554 62.19286071 183 87 C174.26886606 109.78638416 173.96890249 135.18417553 183.73657227 157.66430664 C187.30061339 165.43891332 191.57834321 172.36123658 197 179 C197.52851562 179.6909375 198.05703125 180.381875 198.6015625 181.09375 C211.58375347 197.20957327 233.3420906 207.78031938 253.55859375 210.6796875 C279.39332448 213.08428219 303.09260078 206.95115997 323.6875 190.6875 C341.51539112 175.49793185 352.23756062 154.99855923 355.75 131.875 C357.59522095 103.27407522 348.62477478 79.68134773 330.2578125 57.9375 C320.72084507 47.68881858 307.1886905 40.39623017 294 36 C294.60268324 32.34526702 294.94814214 32.04044913 298.125 29.5625 C316.82138734 18.70653316 341.71344661 17.08258393 362.45703125 21.96875 C388.11840895 29.43799335 406.74493323 45.59376474 421 68 C423.25929373 65.09622825 425.26794764 62.06718198 427.25952148 58.9753418 C444.95389122 31.69028239 467.25354397 15.19726621 499.35888672 8.27587891 C505.66834015 6.94396576 511.9845069 5.64713303 518.3046875 4.3671875 C523.55123678 3.30431534 528.77950254 2.18391411 534 1 C532.30302338 9.57146353 530.56203577 18.13345355 528.76074219 26.68359375 C528.42269928 28.29947764 528.08929427 29.91633937 527.76074219 31.53417969 C521.45422713 62.53594608 507.29160704 86.80902253 480.7265625 104.57421875 C475.85517092 107.77572564 470.94275289 110.90994639 466 114 C466.87140625 114.52207031 467.7428125 115.04414062 468.640625 115.58203125 C491.10948238 129.3389281 506.75635549 149.10827644 513 175 C516.96679943 196.10432619 515.21596054 220.75642735 503 239 C500.78125 240.37890625 500.78125 240.37890625 499 241 C498.57589844 240.05640625 498.15179687 239.1128125 497.71484375 238.140625 C486.56277232 213.58483806 471.27537072 193.81108586 445.3125 183.8125 C421.51639192 175.13201852 396.85369259 175.67249438 373.70629883 186.078125 C366.93614704 189.32139308 360.96040678 193.451491 355 198 C354.34902344 198.46664062 353.69804688 198.93328125 353.02734375 199.4140625 C336.4822562 212.16512288 327.66329863 233.04550252 323.390625 252.8203125 C320.44588627 276.79048577 325.20361008 299.96795361 339 320 C342.38687066 324.27028504 346.15495266 328.14424222 350 332 C350.78117187 332.804375 351.56234375 333.60875 352.3671875 334.4375 C369.0864672 350.65013486 391.93086006 357.39294855 414.78662109 357.30273438 C436.99460142 356.82656565 457.57785728 347.75880673 474 333 C474.65742187 332.41347656 475.31484375 331.82695313 475.9921875 331.22265625 C486.29660768 321.49070385 492.99804004 308.12697106 498 295 C503.5243403 297.2383103 505.52071649 301.82149654 508 307 C516.68112861 330.92947463 516.39319083 356.69326956 506 380 C497.07639996 397.96436921 483.14362447 411.74586948 466 422 C468.70154518 425.06818346 472.05670797 427.00398761 475.5 429.125 C501.72826645 445.69343081 518.04114122 467.90077857 525 498 C526.63491101 505.4866644 528.16358013 512.99400122 529.66796875 520.5078125 C530.64869269 525.37997632 531.73559195 530.19405092 533 535 C524.84849729 533.93227465 516.8643006 532.14698282 508.83374023 530.40893555 C507.00348053 530.01502096 505.17210616 529.62624618 503.33959961 529.24291992 C480.51735848 524.46722723 461.99047447 517.49799695 445 501 C444.4121875 500.4740625 443.824375 499.948125 443.21875 499.40625 C434.37718658 491.23197439 426.356825 479.73625263 421 469 C421 468.34 421 467.68 421 467 C420.34 467 419.68 467 419 467 C418.59587891 468.09634766 418.59587891 468.09634766 418.18359375 469.21484375 C410.11489301 488.20158839 391.18310654 501.78981965 373 510 C350.19950069 518.87853545 325.62183634 517.66972995 303 509 C299.45889205 507.27916854 296.03835085 505.52162451 293 503 C292.67 502.01 292.34 501.02 292 500 C292.92039062 499.67128906 293.84078125 499.34257813 294.7890625 499.00390625 C308.75282844 493.83234771 320.39554651 486.58591423 331 476 C331.69609375 475.31550781 332.3921875 474.63101562 333.109375 473.92578125 C349.29370349 456.95732832 356.42048173 433.07501172 356.21484375 410.06640625 C355.27633729 385.86926141 344.1145796 363.25084679 326.6875 346.6875 C306.99562664 329.57862272 282.73357013 322.52105919 257 324 C242.55466988 325.68767223 227.9694939 330.65507115 216 339 C215.2678125 339.51046875 214.535625 340.0209375 213.78125 340.546875 C193.93943193 355.21864188 182.62078205 374.75048253 177.40625 398.73046875 C174.36079063 423.24056004 179.27719249 447.89999549 194.5 467.75 C195.6617238 469.17072283 196.82804099 470.58770838 198 472 C198.65355469 472.87205078 198.65355469 472.87205078 199.3203125 473.76171875 C207.52822853 484.30422167 219.33497084 490.65342786 231.21435547 496.16357422 C233.8352601 497.39124981 236.41715214 498.69460394 239 500 C231.95075378 509.99772901 218.2559121 512.5567293 206.8046875 514.55859375 C181.16524901 517.5331898 157.3248188 512.48012421 136.78515625 496.53125 C126.7850634 488.52883583 118.25517088 479.25930758 112 468 C112 467.34 112 466.68 112 466 C111.34 466 110.68 466 110 466 C109.77183594 466.83273437 109.54367187 467.66546875 109.30859375 468.5234375 C107.74042518 472.6896167 105.6002249 475.99207886 103.0625 479.625 C102.57813477 480.32359131 102.09376953 481.02218262 101.59472656 481.74194336 C96.91201854 488.35713758 91.64431285 494.20386228 86 500 C85.4328125 500.64066406 84.865625 501.28132813 84.28125 501.94140625 C70.04636812 517.59251362 49.9219072 523.21234093 29.98046875 527.37353516 C26.87839196 528.0255608 23.78270725 528.70286069 20.6875 529.38671875 C12.76574412 531.13333019 12.76574412 531.13333019 8.84375 531.984375 C8.05162109 532.15678711 7.25949219 532.32919922 6.44335938 532.50683594 C3.63882868 533.07289829 0.82414999 533.54294169 -2 534 C-1.75040527 533.03715088 -1.50081055 532.07430176 -1.24365234 531.08227539 C0.57128794 523.99997383 2.2789518 516.91643005 3.7109375 509.74609375 C3.8487262 509.06286041 3.98651489 508.37962708 4.128479 507.6756897 C4.68628427 504.90265297 5.24184474 502.12943759 5.77636719 499.35180664 C11.53175246 469.60984292 27.19484178 447.41639836 52.12060547 430.25 C56.60925368 427.26456497 61.2685485 424.58159272 66 422 C62.75909531 419.35519028 59.4503449 416.92409277 56 414.5625 C35.8477463 399.86927998 22.80649858 379.36146898 18.40625 354.66796875 C16.31007689 335.74194425 17.90910667 314.90170563 28.0625 298.3125 C30.00311941 295.99627683 31.3133937 295.22321576 34 294 C34.40089844 295.07636719 34.80179688 296.15273438 35.21484375 297.26171875 C44.29202995 320.88250797 60.20401002 339.21239151 83.37573242 349.72607422 C105.26673044 359.13033519 129.21212289 359.82170949 151.5625 351.75 C163.02749681 347.06927226 172.76674744 341.26368646 182 333 C182.62261719 332.47148438 183.24523438 331.94296875 183.88671875 331.3984375 C200.49253185 316.30224378 209.03295545 292.37111112 210.125 270.49609375 C210.71831429 245.0206616 200.80782346 221.55480565 183.3671875 203.234375 C164.75607968 185.5456836 141.05267194 177.42923837 115.703125 177.78515625 C92.93754955 178.53073348 70.94652749 188.92795048 55 205 C45.61029566 215.14583464 39.29889214 227.32803165 34 240 C29.11423039 238.28569487 27.73891301 234.56088535 25.58959961 230.11816406 C16.40336785 210.06737526 15.64102015 184.70142931 23 164 C23.42410156 162.80503906 23.84820313 161.61007812 24.28515625 160.37890625 C32.39562029 139.7525729 47.74584834 123.62130784 67 113 C63.34323209 109.9504193 59.55592332 107.42593919 55.5 104.9375 C30.38007627 89.07963391 14.42182897 66.9564419 7.67382812 38.00244141 C4.84685139 25.40600665 2.06585986 12.74463776 0 0 Z " fill="#BDBFC1" transform="translate(1233,518)"/>
<path d="M0 0 C0.89250049 0.00234178 1.78500097 0.00468355 2.70454693 0.00709629 C3.38061898 0.01010715 4.05669104 0.013118 4.75325012 0.01622009 C4.72383677 1.11688781 4.69442343 2.21755552 4.66411877 3.35157681 C3.88926214 32.83426639 3.5895288 62.29862316 3.58599305 91.79080701 C3.58526899 95.2034853 3.58311066 98.61615986 3.58049583 102.0288372 C3.57135556 113.98614117 3.5671488 125.94343423 3.56794739 137.90074158 C3.56855379 148.9798919 3.55786403 160.05899444 3.54220372 171.13813263 C3.52911924 180.74254728 3.52376347 190.34694622 3.5244028 199.9513697 C3.52465635 205.64978274 3.52188068 211.34815249 3.51122475 217.04655647 C3.50152154 222.37487339 3.5014797 227.70310551 3.50874138 233.03142548 C3.50978254 234.97600619 3.50745239 236.92059229 3.50138092 238.8651638 C2.78277391 256.03058642 2.78277391 256.03058642 7.75325012 272.01622009 C16.36950773 277.80077265 26.99027309 280.75418274 36.75325012 284.01622009 C36.75325012 286.32622009 36.75325012 288.63622009 36.75325012 291.01622009 C35.80820618 290.92010437 34.86316223 290.82398865 33.88948059 290.72496033 C15.73734187 288.90480321 -2.01826664 287.28684219 -20.24674988 289.01622009 C-21.18760437 289.10097595 -22.12845886 289.18573181 -23.0978241 289.27305603 C-28.82295409 289.79465139 -34.53003365 290.39483789 -40.24674988 291.01622009 C-40.57674988 282.10622009 -40.90674988 273.19622009 -41.24674988 264.01622009 C-43.55674988 266.98622009 -45.86674988 269.95622009 -48.24674988 273.01622009 C-60.46843988 286.94894669 -78.07898506 293.49330238 -96.24674988 295.01622009 C-119.53009085 296.18661263 -142.67480646 291.23843885 -160.55924988 275.64122009 C-162.14349261 274.12190534 -163.7064243 272.58004216 -165.24674988 271.01622009 C-166.41850769 269.84252869 -166.41850769 269.84252869 -167.61393738 268.64512634 C-187.10691765 248.13483565 -191.04498281 221.11593358 -190.52409363 193.89903259 C-189.57423018 164.67792205 -175.85873254 137.50086253 -154.93034363 117.35606384 C-134.615968 99.64382076 -110.8908632 92.56176742 -84.24674988 94.01622009 C-70.98313784 95.26834989 -58.51720467 98.85773055 -47.01945496 105.62071228 C-45.93852066 106.25531372 -44.85758636 106.88991516 -43.74389648 107.54374695 C-42.9198381 108.02966309 -42.09577972 108.51557922 -41.24674988 109.01622009 C-41.22340162 100.40918538 -41.20572172 91.80216428 -41.19493771 83.19510555 C-41.18975744 79.1969076 -41.18275001 75.19873159 -41.17131042 71.20054626 C-41.16030644 67.32961377 -41.15443666 63.45870215 -41.15187263 59.5877552 C-41.15004948 58.1236647 -41.14649093 56.65957511 -41.14101982 55.1954937 C-39.96438804 37.97227213 -39.96438804 37.97227213 -44.24674988 22.01622009 C-47.10514005 20.34810276 -47.10514005 20.34810276 -50.55924988 19.01622009 C-51.17501892 18.76203308 -51.79078796 18.50784607 -52.42521667 18.24595642 C-57.7796503 16.08575471 -63.24687633 14.36479673 -68.79753113 12.77793884 C-71.24674988 12.01622009 -71.24674988 12.01622009 -72.24674988 11.01622009 C-72.28767925 8.68324576 -72.28916711 6.34916785 -72.24674988 4.01622009 C-71.49619324 4.00163757 -70.7456366 3.98705505 -69.97233582 3.97203064 C-52.36504475 3.59670197 -34.89528169 2.65234124 -17.35710144 1.03257751 C-16.62383133 0.96613037 -15.89056122 0.89968323 -15.1350708 0.83122253 C-13.15454107 0.65063308 -11.17461568 0.46344942 -9.19474792 0.27574158 C-6.10276146 0.07248998 -3.09377132 -0.01055725 0 0 Z M-124.43815613 124.55918884 C-142.85724949 148.78012186 -146.04861175 180.78198872 -142.74674988 210.26622009 C-142.14672162 214.57460479 -141.2922751 218.79501493 -140.24674988 223.01622009 C-140.08046082 223.69007751 -139.91417175 224.36393494 -139.74284363 225.05821228 C-135.07673611 243.14369937 -126.72362124 261.21500921 -110.59831238 271.64903259 C-100.48430902 277.52926711 -90.34707139 278.03547449 -79.03971863 275.75840759 C-67.27483675 272.63207535 -58.04031742 264.88898806 -51.93424988 254.45372009 C-35.54548177 224.50267017 -35.98887403 180.57573731 -44.94059753 148.37388611 C-49.2116563 134.25444678 -56.34401308 121.47705254 -69.64128113 114.23497009 C-88.69228398 105.32355647 -110.52863628 108.41819523 -124.43815613 124.55918884 Z " fill="#9F202C" transform="translate(1875.2467498779297,1044.9837799072266)"/>
<path d="M0 0 C1.05102905 0.06427689 1.05102905 0.06427689 2.12329102 0.12985229 C12.36061777 0.76295927 22.55366108 1.62497724 32.75 2.75 C34.47621582 2.94009644 34.47621582 2.94009644 36.23730469 3.1340332 C44.1161347 4.0536347 44.1161347 4.0536347 45.25 5.1875 C45.3492007 7.09393677 45.37799358 9.0040705 45.37939453 10.91308594 C45.38254669 12.13815857 45.38569885 13.3632312 45.38894653 14.62542725 C45.38715596 15.97424353 45.38510481 17.32305948 45.3828125 18.671875 C45.38348587 20.04852312 45.38445617 21.42517113 45.38571167 22.80181885 C45.38718906 25.69373705 45.3850341 28.58562444 45.38037109 31.47753906 C45.3746951 35.17747347 45.37793896 38.87733501 45.38394356 42.57726669 C45.38756632 45.42377262 45.38640233 48.27026143 45.38381577 51.11676788 C45.38315013 52.48026793 45.3839622 53.84376955 45.38629532 55.20726776 C45.38884755 57.1196235 45.38426496 59.0319847 45.37939453 60.94433594 C45.37859894 62.03164001 45.37780334 63.11894409 45.37698364 64.23919678 C45.25809104 66.99964248 44.87628077 69.50139699 44.25 72.1875 C41.28 72.1875 38.31 72.1875 35.25 72.1875 C34.89808594 71.11113281 34.54617188 70.03476563 34.18359375 68.92578125 C28.9160333 53.18824322 22.99340219 37.84534492 7.765625 29.43359375 C-13.49332726 18.90315 -42.52026053 21.62085623 -64.5625 28.375 C-88.27809097 36.92690848 -104.56370612 53.78878368 -115.21875 76.2890625 C-129.84823807 110.09745261 -131.57724494 152.04466172 -118.01831055 186.53173828 C-108.81277274 208.84484958 -92.41602039 228.33980017 -69.81640625 237.91796875 C-58.55134287 242.42100566 -46.90735719 245.57217364 -34.75 246.1875 C-33.84765625 246.24035156 -32.9453125 246.29320312 -32.015625 246.34765625 C-14.55066995 246.86798522 10.29612614 244.94076215 24.25 233.1875 C26.28509194 230.22838342 27.59614904 227.08867449 28.93359375 223.765625 C29.3194313 222.86503357 29.70526886 221.96444214 30.10279846 221.03656006 C31.32114994 218.17947091 32.50490587 215.30954874 33.6875 212.4375 C34.90272019 209.55486235 36.12471016 206.67516104 37.34718323 203.79559326 C38.10319665 202.00742747 38.85347401 200.21682386 39.59751892 198.42364502 C40.09923363 197.21668976 40.09923363 197.21668976 40.61108398 195.98535156 C40.9045018 195.2742926 41.19791962 194.56323364 41.50022888 193.83062744 C42.25 192.1875 42.25 192.1875 43.25 191.1875 C45.23 191.1875 47.21 191.1875 49.25 191.1875 C49.25 211.9775 49.25 232.7675 49.25 254.1875 C24.74869792 262.35460069 24.74869792 262.35460069 16.9375 263.9375 C15.99422852 264.13375977 15.05095703 264.33001953 14.07910156 264.53222656 C-34.2382005 274.21482886 -87.40580414 273.84720186 -129.83300781 245.81103516 C-134.03312328 242.85646382 -137.94121524 239.62792342 -141.75 236.1875 C-142.27384277 235.71731445 -142.79768555 235.24712891 -143.33740234 234.76269531 C-165.84401371 214.22376112 -179.54957425 184.53654155 -181.75 154.1875 C-183.01304101 125.26684447 -178.93515655 98.67511529 -164.75 73.1875 C-164.22277344 72.23230469 -163.69554687 71.27710938 -163.15234375 70.29296875 C-157.56925178 60.60072109 -150.34140551 52.35058754 -142.75 44.1875 C-142.14800781 43.51976562 -141.54601562 42.85203125 -140.92578125 42.1640625 C-113.91631743 13.45552178 -71.37953106 0.94170832 -33.10693359 -0.74780273 C-22.03785989 -1.05164617 -11.04752078 -0.69482192 0 0 Z " fill="#9F202C" transform="translate(719.75,1070.8125)"/>
<path d="M0 0 C10.13823666 8.74921841 15.19673321 22.03878963 16.48046875 35.140625 C16.63381025 38.93783935 16.64463728 42.73273439 16.65405273 46.53271484 C16.66073975 47.66044815 16.66742676 48.78818146 16.67431641 49.9500885 C16.68832913 52.39123853 16.70023508 54.83240137 16.71026421 57.27357101 C16.72673135 61.14121927 16.74997114 65.00877259 16.77516174 68.87637329 C16.84578349 79.87033341 16.90607977 90.864331 16.95727539 101.85839844 C16.98870551 108.59033815 17.03041164 115.32215356 17.07747078 122.05400467 C17.0934506 124.61434558 17.10579064 127.17471197 17.11437798 129.73508835 C17.12657702 133.32008833 17.15074582 136.90482922 17.17749023 140.48974609 C17.17807938 141.5404277 17.17866852 142.59110931 17.17927551 143.67362976 C17.23354039 154.36982726 17.23354039 154.36982726 21.48046875 163.890625 C30.06348471 170.32788697 40.4845158 173.53166432 50.48046875 177.140625 C50.48046875 179.450625 50.48046875 181.760625 50.48046875 184.140625 C49.84061035 184.08527588 49.20075195 184.02992676 48.54150391 183.97290039 C12.19183921 180.89627297 -23.16803555 181.25452464 -59.51953125 184.140625 C-59.51953125 181.830625 -59.51953125 179.520625 -59.51953125 177.140625 C-58.78839111 176.85864258 -58.05725098 176.57666016 -57.30395508 176.28613281 C-53.9763436 174.99679886 -50.65421647 173.69387342 -47.33203125 172.390625 C-46.18154297 171.9471875 -45.03105469 171.50375 -43.84570312 171.046875 C-42.73388672 170.60859375 -41.62207031 170.1703125 -40.4765625 169.71875 C-39.4553833 169.32075195 -38.4342041 168.92275391 -37.38208008 168.51269531 C-33.72583266 166.76019122 -30.37412478 164.84981206 -28.51953125 161.140625 C-27.45366736 154.26388993 -27.36661902 147.33257497 -27.35839844 140.3894043 C-27.35343353 139.36519379 -27.34846863 138.34098328 -27.34335327 137.28573608 C-27.32885938 133.92876491 -27.32195199 130.57184095 -27.31640625 127.21484375 C-27.31357887 126.05975626 -27.3107515 124.90466877 -27.30783844 123.71457863 C-27.2928996 117.60472005 -27.28363597 111.49488478 -27.27929688 105.38500977 C-27.2738125 99.10438297 -27.24976962 92.82397297 -27.22132492 86.54341412 C-27.20262343 81.6849761 -27.197489 76.82658962 -27.195961 71.96811867 C-27.19295216 69.65387598 -27.18498413 67.33963381 -27.17177582 65.02542686 C-26.68850728 41.72474299 -26.68850728 41.72474299 -36.51953125 21.140625 C-45.45676213 12.56669619 -55.55221687 10.71732578 -67.6015625 10.9296875 C-79.87248601 11.59033543 -90.8193226 15.89856888 -99.39453125 24.828125 C-108.19503461 35.3131612 -110.83039799 47.08476466 -110.79418945 60.45874023 C-110.80185585 61.94354385 -110.80185585 61.94354385 -110.80967712 63.45834351 C-110.82348948 66.70536475 -110.82262279 69.95217176 -110.8203125 73.19921875 C-110.82420371 75.47168556 -110.82853925 77.74415166 -110.83329773 80.01661682 C-110.84074176 84.76997235 -110.84048161 89.52325359 -110.83520508 94.27661133 C-110.82940967 100.3502005 -110.8463523 106.42348479 -110.86954975 112.49702358 C-110.88432176 117.18721782 -110.88515411 121.87733919 -110.88204002 126.56755257 C-110.88255138 128.80611844 -110.88775407 131.04468858 -110.89785194 133.28323174 C-110.91026773 136.42005804 -110.90339393 139.55629745 -110.8918457 142.69311523 C-110.89948944 143.60614914 -110.90713318 144.51918304 -110.91500854 145.45988464 C-110.86551679 151.5800924 -110.20382958 157.56241534 -107.51953125 163.140625 C-101.95196725 168.4760835 -94.59938723 170.96087832 -87.45703125 173.515625 C-86.01553711 174.04736328 -86.01553711 174.04736328 -84.54492188 174.58984375 C-82.20674902 175.45066361 -79.86525293 176.30064424 -77.51953125 177.140625 C-77.51953125 179.450625 -77.51953125 181.760625 -77.51953125 184.140625 C-78.15938965 184.08527588 -78.79924805 184.02992676 -79.45849609 183.97290039 C-111.35717683 181.27300325 -142.58662865 180.84627962 -174.51953125 183.140625 C-175.9042869 183.2387477 -177.28905248 183.33673024 -178.67382812 183.43457031 C-181.95590301 183.66759269 -185.23779539 183.90288377 -188.51953125 184.140625 C-188.51953125 181.830625 -188.51953125 179.520625 -188.51953125 177.140625 C-187.93051025 176.92446533 -187.34148926 176.70830566 -186.73461914 176.4855957 C-184.01423202 175.48233804 -181.29817634 174.46780831 -178.58203125 173.453125 C-177.65583984 173.11345703 -176.72964844 172.77378906 -175.77539062 172.42382812 C-165.38968262 169.0961224 -165.38968262 169.0961224 -157.4471283 162.35510254 C-152.93481959 151.58274582 -155.37488731 135.87977231 -155.38671875 124.37109375 C-155.38604348 122.04437754 -155.38507161 119.7176614 -155.38381958 117.39094543 C-155.38234987 112.52177252 -155.38447159 107.65261802 -155.38916016 102.78344727 C-155.3948219 96.60931756 -155.39159645 90.43523168 -155.38558769 84.26110363 C-155.3819323 79.45373723 -155.38314381 74.64638079 -155.38571548 69.83901405 C-155.38637291 67.56654162 -155.38559886 65.29406821 -155.38323593 63.02159691 C-155.37388196 51.48757313 -155.47338177 39.96567697 -155.90283203 28.4387207 C-155.93317472 27.48909297 -155.96351742 26.53946524 -155.99477959 25.56106091 C-156.19976275 20.78067537 -156.52885969 16.57355029 -158.51953125 12.140625 C-160.74143892 10.50987639 -160.74143892 10.50987639 -163.58203125 9.578125 C-165.17144531 8.98064453 -165.17144531 8.98064453 -166.79296875 8.37109375 C-171.82548243 6.70941471 -176.89000698 5.17749153 -181.99438477 3.75170898 C-187.4266404 2.23351585 -187.4266404 2.23351585 -188.51953125 1.140625 C-188.56046062 -1.19234933 -188.56194848 -3.52642725 -188.51953125 -5.859375 C-180.54722782 -6.12284171 -172.57484735 -6.38379053 -164.60236168 -6.64167786 C-160.89892984 -6.76154931 -157.19552841 -6.88223174 -153.4921875 -7.00488281 C-149.9066147 -7.12360173 -146.32097394 -7.24003995 -142.73527908 -7.35501099 C-140.72714576 -7.41996101 -138.71908582 -7.48716794 -136.71102905 -7.55444336 C-128.30655624 -7.82147589 -119.92809579 -7.89735835 -111.51953125 -7.859375 C-111.02453125 4.020625 -111.02453125 4.020625 -110.51953125 16.140625 C-108.20953125 13.830625 -105.89953125 11.520625 -103.51953125 9.140625 C-75.63476612 -14.16604436 -30.81426046 -23.46925338 0 0 Z " fill="#9F202C" transform="translate(2497.51953125,1151.859375)"/>
<path d="M0 0 C-0.02865646 0.77288361 -0.05731293 1.54576721 -0.08683777 2.34207153 C-1.04293059 29.10519056 -1.25114217 55.86301573 -1.29516602 82.64160156 C-1.30413806 87.50337823 -1.3253248 92.36487945 -1.35668945 97.2265625 C-1.39522112 103.19974015 -1.41393396 109.17267204 -1.41844749 115.14596939 C-1.42327642 117.39044801 -1.43478286 119.63492379 -1.45348549 121.87932968 C-1.88991764 142.87750517 -1.88991764 142.87750517 7.25 161.2890625 C15.15499825 169.0176099 24.32725333 172.02254271 35.25 172.4375 C46.47373978 172.13018332 57.3063906 169.31254722 66 162 C66.62261719 161.49855469 67.24523437 160.99710938 67.88671875 160.48046875 C77.30930808 152.07985223 81.20908093 139.17299633 82.16346741 126.89744186 C82.41923865 121.41081582 82.37052794 115.92444933 82.328125 110.43359375 C82.32505479 108.6654527 82.32318829 106.89730921 82.32244873 105.12916565 C82.31787692 101.44042541 82.30358347 97.75190725 82.28125 94.06323242 C82.25311368 89.39938375 82.2421463 84.73570802 82.23741913 80.07178307 C82.23593184 57.1729696 82.23593184 57.1729696 81.609375 34.28515625 C81.579505 33.49249863 81.54963501 32.699841 81.51885986 31.88316345 C81.29505877 27.62676369 80.67956176 23.93052467 79 20 C76.77809233 18.36925139 76.77809233 18.36925139 73.9375 17.4375 C72.87789062 17.03917969 71.81828125 16.64085937 70.7265625 16.23046875 C65.69404882 14.56878971 60.62952427 13.03686653 55.52514648 11.61108398 C50.09289085 10.09289085 50.09289085 10.09289085 49 9 C48.95907063 6.66702567 48.95758277 4.33294775 49 2 C57.23307641 1.73661947 65.46622512 1.47567453 73.69947243 1.21769714 C77.52397004 1.09778824 81.34843921 0.97709262 85.17285156 0.85449219 C88.87513765 0.73583755 92.57748758 0.61938894 96.27988815 0.50436401 C97.68063124 0.46047852 99.08135115 0.41584579 100.48204422 0.37039185 C109.66032899 0.07318454 118.81737506 -0.05616761 128 0 C127.97068893 0.82514099 127.94137787 1.65028198 127.91117859 2.50042725 C126.87248575 33.01689657 126.81202064 63.53179306 126.81488979 94.06282949 C126.81453422 99.6187458 126.80284384 105.17460001 126.7889536 110.73049664 C126.77427194 116.82596192 126.77070931 122.92138657 126.77130699 129.01686859 C126.77013369 131.57640689 126.76574878 134.13594596 126.75797462 136.69547272 C126.74815171 140.25050525 126.75105771 143.80531528 126.75708008 147.36035156 C126.75146057 148.39613846 126.74584106 149.43192535 126.74005127 150.49909973 C126.77243042 158.04056463 126.93488916 166.38999613 131 173 C133.43384183 174.5031689 135.74574146 175.77376563 138.3125 177 C139.02148438 177.34740234 139.73046875 177.69480469 140.4609375 178.05273438 C146.79358121 181.07178545 153.20569695 183.23161975 160 185 C160 187.31 160 189.62 160 192 C158.89527344 191.86722656 157.79054688 191.73445313 156.65234375 191.59765625 C135.15376188 189.11037217 114.54401836 188.80012493 93 191 C89.7 191.33 86.4 191.66 83 192 C82.67 183.42 82.34 174.84 82 166 C79.97875 168.124375 77.9575 170.24875 75.875 172.4375 C58.83806921 189.70474078 38.77640409 196.03981557 14.8125 196.25 C-2.1841195 195.98416822 -18.23783238 192.53113979 -31.25390625 181.00390625 C-41.89633561 169.99797836 -45.29281134 155.93189809 -45.30297852 141.06591797 C-45.31141785 140.12765167 -45.31985718 139.18938538 -45.32855225 138.22268677 C-45.35415956 135.14584781 -45.36644541 132.06910524 -45.37890625 128.9921875 C-45.39512046 126.82194296 -45.41230441 124.65170546 -45.43040466 122.48147583 C-45.47596202 116.77304418 -45.51079405 111.06460208 -45.54260254 105.3560791 C-45.5945227 96.2725985 -45.660866 87.18922642 -45.73081779 78.10586929 C-45.75314725 74.97365446 -45.76975099 71.84145166 -45.78553772 68.709198 C-45.84782247 58.45008219 -46.02597796 48.19892813 -46.39038086 37.94580078 C-46.42030152 36.95182219 -46.45022219 35.95784359 -46.48104954 34.93374443 C-46.69215919 29.65462882 -47.0633072 24.94426248 -49 20 C-51.9975639 17.98835504 -51.9975639 17.98835504 -55.75 16.8125 C-56.41016113 16.57184814 -57.07032227 16.33119629 -57.75048828 16.08325195 C-63.53408159 14.02318193 -69.43454531 12.33446618 -75.3671875 10.76171875 C-78 10 -78 10 -79 9 C-79.04092937 6.66702567 -79.04241723 4.33294775 -79 2 C-70.76692359 1.73661947 -62.53377488 1.47567453 -54.30052757 1.21769714 C-50.47602996 1.09778824 -46.65156079 0.97709262 -42.82714844 0.85449219 C-39.12486235 0.73583755 -35.42251242 0.61938894 -31.72011185 0.50436401 C-30.31936876 0.46047852 -28.91864885 0.41584579 -27.51795578 0.37039185 C-18.33967101 0.07318454 -9.18262494 -0.05616761 0 0 Z " fill="#9F202C" transform="translate(899,1144)"/>
<path d="M0 0 C1.10988281 0.89138672 1.10988281 0.89138672 2.2421875 1.80078125 C20.12448663 16.74394817 30.22167461 40.17340609 32.71875 63.03125 C34.98434455 95.0013064 27.14012315 124.44802153 6 149 C-10.76607691 167.77570941 -33.6476333 177.66107272 -58.55078125 179.22265625 C-88.17773929 179.95457895 -115.07807649 169.76882362 -136.75 149.6875 C-157.40027075 127.81048049 -162.82623749 100.13751675 -162.13623047 71.08007812 C-160.98639998 45.08319386 -149.07552668 19.79362535 -130.234375 1.89453125 C-93.72601449 -29.06098421 -37.03393245 -31.12708659 0 0 Z M-99 7 C-117.86981649 33.72449379 -118.01555551 71.11185055 -112.9140625 102.140625 C-109.10606978 123.17916791 -101.77655433 146.45094058 -83.5625 159.375 C-73.34507688 165.6693511 -61.4543825 167.42251154 -49.72265625 164.83984375 C-38.58419623 161.40402036 -30.85813231 154.61612392 -25.02734375 144.6171875 C-8.42009376 112.60034653 -10.92409495 68.56570478 -21.30419922 35.14013672 C-24.60364929 24.99172291 -28.70662533 15.69290336 -35 7 C-35.48210937 6.33355469 -35.96421875 5.66710938 -36.4609375 4.98046875 C-42.94821501 -3.24511241 -51.83909454 -7.94508942 -62.17578125 -9.28125 C-76.42339391 -9.90637377 -90.04689276 -4.0921501 -99 7 Z " fill="#9F202C" transform="translate(1605,1161)"/>
<path d="M0 0 C10.1932846 9.41357439 16.25100446 20.50004549 17.28456116 34.52233315 C17.36345032 37.39571826 17.3836666 40.26346999 17.38085938 43.13793945 C17.38769241 44.22213165 17.39452545 45.30632385 17.40156555 46.42337036 C17.41509343 48.76406617 17.42418516 51.10479103 17.42927551 53.4455204 C17.43761091 57.1587853 17.45815988 60.87180971 17.48181152 64.58500671 C17.5299003 72.47199663 17.56300229 80.35902196 17.59375 88.24609375 C17.62939441 97.38045205 17.67159659 106.51470058 17.72969055 115.64894676 C17.74962792 119.29139707 17.75805225 122.93375492 17.76599121 126.57624817 C17.7789756 128.83119026 17.79249764 131.08612933 17.80664062 133.34106445 C17.80516777 134.84009056 17.80516777 134.84009056 17.80366516 136.36940002 C17.87977415 145.14838445 18.04079508 155.4477346 23.09375 162.93359375 C27.6193032 167.29458138 33.12034919 169.27689382 38.84375 171.62109375 C40.75602539 172.41470074 42.66752858 173.2101719 44.578125 174.0078125 C45.42084961 174.35416748 46.26357422 174.70052246 47.13183594 175.05737305 C49.09375 175.93359375 49.09375 175.93359375 50.09375 176.93359375 C50.13467937 179.26656808 50.13616723 181.600646 50.09375 183.93359375 C49.12179688 183.80082031 48.14984375 183.66804688 47.1484375 183.53125 C23.79316507 180.47638959 1.45422624 181.01353422 -21.90625 183.93359375 C-22.23625 174.69359375 -22.56625 165.45359375 -22.90625 155.93359375 C-24.88625 158.90359375 -26.86625 161.87359375 -28.90625 164.93359375 C-40.66389182 178.65084254 -58.12938339 186.217864 -75.90625 187.93359375 C-92.99144336 189.24423872 -109.63141895 185.16158266 -122.90625 174.05859375 C-132.03330822 165.21940193 -136.57134305 154.53348076 -137.90625 141.93359375 C-137.9982728 124.21000251 -133.17073498 110.41136448 -120.90625 97.30859375 C-96.04098487 73.59199576 -56.75004852 68.44980621 -23.90625 68.93359375 C-23.78987082 43.34854971 -23.78987082 43.34854971 -34.65625 20.8984375 C-43.93083204 12.09132432 -55.35384592 10.43609603 -67.6953125 10.65234375 C-85.79681197 11.47476535 -100.05316974 22.78334103 -112.25 35.109375 C-113.93766044 36.96818968 -115.43452487 38.90099776 -116.90625 40.93359375 C-122.16795694 39.52191628 -125.62796358 37.18509143 -129.90625 33.93359375 C-121.55813393 15.84600893 -101.8311012 0.66200647 -83.890625 -7.0078125 C-58.40096718 -16.04930107 -21.92776652 -18.47175984 0 0 Z M-81.90625 98.93359375 C-83.15728516 99.85785156 -83.15728516 99.85785156 -84.43359375 100.80078125 C-92.48866193 107.74875475 -96.19645943 117.75583658 -97.21875 128.09375 C-97.61965941 138.60509357 -95.53462514 147.31972463 -88.65625 155.43359375 C-82.07259071 162.17967885 -75.60572649 164.83172671 -66.28125 165.18359375 C-55.44719513 165.0228511 -45.68220471 161.22315228 -37.6796875 153.89453125 C-23.7941134 139.17686282 -23.47613188 122.36409612 -23.71875 103.24609375 C-23.73382146 101.17644201 -23.74750551 99.10677968 -23.75976562 97.03710938 C-23.79258211 92.00233949 -23.84422929 86.96808512 -23.90625 81.93359375 C-44.00151156 81.93359375 -65.6819973 86.75761908 -81.90625 98.93359375 Z " fill="#9F202C" transform="translate(2237.90625,1152.06640625)"/>
<path d="M0 0 C-0.56042934 16.70808433 -1.60702855 33.34111584 -3 50 C-5.64 50 -8.28 50 -11 50 C-11.4532666 49.05680908 -11.9065332 48.11361816 -12.37353516 47.1418457 C-14.06995164 43.62166088 -15.78531262 40.11098879 -17.50634766 36.6027832 C-18.24652085 35.08738279 -18.98163389 33.56949936 -19.71142578 32.04907227 C-20.76552849 29.8553019 -21.8379224 27.67130965 -22.9140625 25.48828125 C-23.23307526 24.81412674 -23.55208801 24.13997223 -23.88076782 23.44538879 C-26.66342103 17.87548302 -30.05225009 14.49312732 -35.69140625 11.63671875 C-42.77171035 9.29588352 -49.25724652 8.61828761 -56.6875 8.5625 C-57.55383057 8.5524292 -58.42016113 8.5423584 -59.31274414 8.53198242 C-69.29936367 8.6655415 -78.40259001 11.33288511 -86 18 C-91.82246086 25.43087546 -91.69180454 33.94549942 -91 43 C-88.89062144 51.80808073 -80.82299621 57.31180363 -73.5390625 61.875 C-67.44244131 65.46992363 -61.02569674 68.16286024 -54.5 70.875 C-53.25331715 71.40100891 -52.00706464 71.92803884 -50.76123047 72.45605469 C-48.30119862 73.49835758 -45.84001515 74.53772935 -43.37792969 75.57519531 C2.06390349 94.7424791 2.06390349 94.7424791 10 114 C14.50989924 127.7301377 13.84786881 141.78196002 8 155 C6.21354775 158.50245286 4.23340744 161.76579986 2 165 C1.58363281 165.61359375 1.16726563 166.2271875 0.73828125 166.859375 C-11.57388201 182.97980498 -34.26512235 189.31056982 -53.42382812 192.05712891 C-68.60561528 193.92450301 -83.5633439 193.10932739 -98.75 191.6875 C-100.0282666 191.56995361 -101.3065332 191.45240723 -102.62353516 191.33129883 C-127.13426859 188.86573141 -127.13426859 188.86573141 -130 186 C-129.98719807 183.4012081 -129.89375095 180.84325679 -129.75 178.25 C-129.70625244 177.41049805 -129.66250488 176.57099609 -129.61743164 175.70605469 C-128.73424013 160.11779172 -127.31121166 144.55691576 -126 129 C-123.69 129 -121.38 129 -119 129 C-116.7976311 134.2504591 -114.78409045 139.51392748 -113.0703125 144.9453125 C-112.74933594 145.95980469 -112.42835937 146.97429687 -112.09765625 148.01953125 C-111.44768176 150.09475101 -110.80708817 152.1729316 -110.17578125 154.25390625 C-107.83474054 161.57548775 -105.16379763 168.36589022 -98.4375 172.62109375 C-97.2309375 173.02521484 -97.2309375 173.02521484 -96 173.4375 C-95.195625 173.72496094 -94.39125 174.01242187 -93.5625 174.30859375 C-76.66200977 178.86863456 -58.01159355 176.78376597 -42.640625 168.67578125 C-37.45630568 165.38573245 -33.61174805 161.00742454 -32 155 C-30.38839305 146.94196525 -31.23316109 140.45827949 -35.5625 133.375 C-45.67097584 119.42143407 -64.52170534 113.10618027 -80 107 C-88.58040789 103.61503296 -97.03129359 100.16767864 -105.1875 95.83984375 C-105.7870752 95.52261353 -106.38665039 95.2053833 -107.00439453 94.87854004 C-118.18995953 88.77868914 -128.37271275 79.72727437 -133.21484375 67.6953125 C-137.61723183 52.582637 -136.60924977 36.94061027 -129 23 C-118.00833475 6.15753743 -100.00602031 -2.60478357 -80.77734375 -6.68359375 C-55.37859786 -10.9909834 -24.40224985 -8.13408328 0 0 Z " fill="#9F202C" transform="translate(1231,1147)"/>
<path d="M0 0 C3.3 0 6.6 0 10 0 C10 15.84 10 31.68 10 48 C23.86 48 37.72 48 52 48 C52 52.62 52 57.24 52 62 C38.14 62 24.28 62 10 62 C10.06292984 80.09841396 10.13815522 98.19663585 10.23571491 116.2948904 C10.28062422 124.69877809 10.32005004 133.10262385 10.34643555 141.5065918 C10.3694551 148.83400411 10.40289715 156.16128323 10.44870156 163.48858982 C10.47258059 167.36607988 10.49134412 171.24343846 10.49761391 175.12100029 C10.50368899 178.77609677 10.52377536 182.43085708 10.55427551 186.08582878 C10.56716257 188.05572465 10.56549245 190.02569921 10.5632782 191.99563599 C10.64955084 200.18623544 11.11806265 207.33916067 16.3125 213.9375 C20.78667674 217.37117052 25.08109204 218.49177892 30.73828125 218.30859375 C38.95674327 217.18724919 45.42297406 213.39515252 51.80859375 208.29296875 C54 207 54 207 56.140625 207.1875 C58.77815975 208.34003619 60.24774747 209.72856154 62 212 C61.8671989 215.61687696 59.85285615 217.46466973 57.30688477 219.85693359 C56.79311279 220.31664551 56.27934082 220.77635742 55.75 221.25 C55.2149585 221.73162598 54.67991699 222.21325195 54.12866211 222.70947266 C38.10197659 236.73952065 19.18468624 243.22771918 -2 242 C-13.04662903 240.96117793 -21.08925826 237.17001355 -28.2734375 228.59765625 C-34.96832885 218.5250256 -35.16608869 206.54418773 -35.125 194.875 C-35.13080078 193.35519531 -35.13080078 193.35519531 -35.13671875 191.8046875 C-35.12851557 184.84838834 -34.93108688 177.91385215 -34.66169739 170.96357727 C-33.85277679 149.89829282 -33.67289415 128.82998118 -33.46777344 107.75170898 C-33.41662599 102.57468017 -33.36143778 97.39769437 -33.30664062 92.22070312 C-33.20058479 82.14717154 -33.09920802 72.07360136 -33 62 C-40.92 62 -48.84 62 -57 62 C-57 54 -57 54 -55.5222168 52.22485352 C-54.49608276 51.68235962 -54.49608276 51.68235962 -53.44921875 51.12890625 C-52.69310303 50.70456299 -51.9369873 50.28021973 -51.15795898 49.84301758 C-50.34270752 49.42044678 -49.52745605 48.99787598 -48.6875 48.5625 C-47.02245278 47.62614507 -45.36097525 46.68341417 -43.703125 45.734375 C-42.48786133 45.04504883 -42.48786133 45.04504883 -41.24804688 44.34179688 C-36.38720287 41.44049381 -32.23021703 37.74398519 -28 34 C-27.22527344 33.35675781 -26.45054688 32.71351562 -25.65234375 32.05078125 C-15.6191835 23.56647936 -5.9208082 11.8416164 0 0 Z " fill="#9F202C" transform="translate(1341,1098)"/>
<path d="M0 0 C0.10601639 11.59819302 0.11512922 23.18969949 -0.23583984 34.78344727 C-0.98512719 59.64513344 -1.05417184 84.46215377 -0.75805664 109.33251953 C-0.69613135 114.55762143 -0.64982163 119.78274296 -0.60722637 125.00803375 C-0.57187879 129.10199097 -0.52767723 133.19581674 -0.48087502 137.28965759 C-0.46002138 139.21920339 -0.44206456 141.14878301 -0.4272213 143.0783844 C-0.40554422 145.74971797 -0.37165771 148.42063648 -0.3347168 151.09179688 C-0.33098557 151.86464523 -0.32725433 152.63749359 -0.32341003 153.4337616 C-0.21372529 159.83319164 0.15547227 166.46377437 4 171.75 C12.58301596 178.18726197 23.00404705 181.39103932 33 185 C33 187.31 33 189.62 33 192 C32.29431885 191.94465088 31.5886377 191.88930176 30.86157227 191.83227539 C-1.01348203 189.37641656 -32.10421375 188.71112776 -64 191 C-66.84091746 191.19357883 -69.6821421 191.38237183 -72.5234375 191.5703125 C-73.76786621 191.65297363 -75.01229492 191.73563477 -76.29443359 191.82080078 C-77.63368896 191.90950439 -77.63368896 191.90950439 -79 192 C-79 189.69 -79 187.38 -79 185 C-78.38068604 184.78384033 -77.76137207 184.56768066 -77.12329102 184.3449707 C-74.26667331 183.34253192 -71.41463955 182.32760654 -68.5625 181.3125 C-67.58861328 180.97283203 -66.61472656 180.63316406 -65.61132812 180.28320312 C-56.25063456 177.17090905 -56.25063456 177.17090905 -48 172 C-46.38280993 167.96014983 -45.75034779 164.54916602 -45.75276184 160.21391296 C-45.74856735 159.08276062 -45.74437286 157.95160828 -45.74005127 156.78617859 C-45.74567078 155.55953995 -45.75129028 154.33290131 -45.75708008 153.0690918 C-45.75518173 151.76594025 -45.75328339 150.4627887 -45.75132751 149.12014771 C-45.74649339 145.55591579 -45.75411821 141.99180971 -45.76428056 138.42759299 C-45.77309163 134.68820585 -45.77130297 130.94882229 -45.7709198 127.20942688 C-45.77185551 120.92743843 -45.78052469 114.64549837 -45.79418945 108.36352539 C-45.80989341 101.11768393 -45.81518817 93.87189551 -45.8144539 86.62603825 C-45.81377623 78.8925406 -45.82073195 71.15906319 -45.8299005 63.42557168 C-45.83202388 61.20692317 -45.83274061 58.98827796 -45.83313942 56.76962852 C-45.83433864 52.61942462 -45.84408302 48.4692822 -45.85473633 44.3190918 C-45.85428314 43.09852585 -45.85382996 41.8779599 -45.85336304 40.6204071 C-45.2267674 29.36855022 -45.2267674 29.36855022 -49.1628418 19.58496094 C-52.20120432 17.88759844 -55.0812376 16.70841632 -58.39453125 15.640625 C-59.59658203 15.24746094 -60.79863281 14.85429688 -62.03710938 14.44921875 C-63.28298828 14.05347656 -64.52886719 13.65773438 -65.8125 13.25 C-67.09081231 12.83561363 -68.36881087 12.42025807 -69.64648438 12.00390625 C-72.76137223 10.99303699 -75.87910371 9.99213188 -79 9 C-79 6.69 -79 4.38 -79 2 C-70.61926071 1.73685087 -62.23845645 1.47591699 -53.85756397 1.21769714 C-49.96466043 1.09768744 -46.07178223 0.97695668 -42.17895508 0.85449219 C-38.41182897 0.73601011 -34.64464538 0.61953418 -30.87741661 0.50436401 C-29.45072973 0.46041145 -28.02406375 0.41577433 -26.59742165 0.37039185 C-17.72948881 0.08884647 -8.87293618 -0.05955506 0 0 Z " fill="#9F202C" transform="translate(2024,1144)"/>
<path d="M0 0 C4.93834243 4.62603619 8.67118236 10.25243938 9.25 17.07421875 C9.50104064 26.56548595 8.61622745 33.53612027 2.1796875 40.91015625 C-3.4553176 46.33103116 -9.61820315 48.84527017 -17.3984375 49.2890625 C-24.98183485 48.95819874 -31.82291518 46.39262546 -37.4609375 41.2890625 C-42.56450046 35.65104018 -45.13007374 28.80995985 -45.4609375 21.2265625 C-44.9673914 12.8213228 -42.06216596 6.89810001 -36.2734375 0.80078125 C-25.91087821 -8.17650536 -10.86428897 -8.01982059 0 0 Z " fill="#9F202C" transform="translate(2017.0234375,1063.1484375)"/>
<path d="M0 0 C5.35158224 4.6492489 8.6146441 9.36859294 9.2109375 16.53515625 C9.50333028 24.71090834 8.40544911 30.72494916 2.75 36.8125 C-3.64096204 42.62005472 -9.20173706 43.64098656 -17.7109375 43.40625 C-23.8246388 42.6511135 -28.64423249 40.47115204 -32.9140625 35.9921875 C-38.68580481 28.57919145 -38.9453396 21.113808 -38 12 C-35.71565153 5.45041048 -31.9249701 1.22272409 -25.9296875 -2.16015625 C-17.408946 -5.86857613 -7.86701876 -4.71757574 0 0 Z M-29.3828125 8.50390625 C-32.82655814 13.50094975 -32.85330102 19.14756168 -32 25 C-30.33637513 29.8307396 -27.3680823 33.37915062 -23 36 C-17.42646706 38.1946465 -12.75560689 38.44165742 -7.1484375 36.2578125 C-2.39672488 33.47590075 1.26372889 29.20881333 3 24 C3.64464003 18.54697941 3.31528264 14.21911578 0.27734375 9.5703125 C-3.08290051 5.43937002 -6.76308161 2.40245877 -12.19921875 1.7265625 C-19.52725069 1.42745916 -24.36182531 3.04322809 -29.3828125 8.50390625 Z " fill="#BDBFC1" transform="translate(1538,1423)"/>
<path d="M0 0 C3.26945994 1.63472997 4.77611698 2.52845695 7.20800781 4.98095703 C8.10848846 5.88166428 8.10848846 5.88166428 9.02716064 6.80056763 C9.980513 7.76940384 9.980513 7.76940384 10.953125 8.7578125 C11.61334656 9.42086395 12.27356812 10.08391541 12.95379639 10.76705933 C15.05727824 12.88171832 17.15369142 15.00323212 19.25 17.125 C20.67662261 18.56165557 22.10370072 19.99785898 23.53125 21.43359375 C27.02702139 24.94968939 30.51314689 28.47496966 34 32 C34.33 21.77 34.66 11.54 35 1 C36.98 1 38.96 1 41 1 C41 16.51 41 32.02 41 48 C36.26996268 43.9456823 31.77699896 39.91530449 27.41015625 35.5078125 C26.52607338 34.62160721 26.52607338 34.62160721 25.62413025 33.71749878 C23.76786273 31.85569596 21.91512915 29.99042255 20.0625 28.125 C18.79385328 26.85132989 17.5249751 25.57789029 16.25585938 24.3046875 C13.1674564 21.2061983 10.08387131 18.10302579 7 15 C6.67 25.23 6.34 35.46 6 46 C4.02 46 2.04 46 0 46 C0 30.82 0 15.64 0 0 Z " fill="#BDBFC1" transform="translate(1766,1419)"/>
<path d="M0 0 C3.42563841 1.71281921 5.05368575 2.80561567 7.64453125 5.4140625 C8.32193359 6.09339844 8.99933594 6.77273438 9.69726562 7.47265625 C10.39529297 8.18292969 11.09332031 8.89320312 11.8125 9.625 C12.49892578 10.31207031 13.18535156 10.99914063 13.89257812 11.70703125 C17.81446564 15.66231232 21.56933022 19.70889929 25.1706543 23.95849609 C27.66729396 26.74468331 30.35462207 29.35462207 33 32 C33.33 21.77 33.66 11.54 34 1 C35.98 1 37.96 1 40 1 C40 16.51 40 32.02 40 48 C32.13205013 41.25604297 32.13205013 41.25604297 29.16796875 38.046875 C28.51376953 37.34433594 27.85957031 36.64179687 27.18554688 35.91796875 C26.52619141 35.20253906 25.86683594 34.48710938 25.1875 33.75 C19.26109246 27.3459417 13.17803292 21.17803292 7 15 C6.67 25.23 6.34 35.46 6 46 C4.02 46 2.04 46 0 46 C0 30.82 0 15.64 0 0 Z " fill="#BDBFC1" transform="translate(2092,1419)"/>
<path d="M0 0 C3.1764614 1.5882307 4.64584908 2.39529222 6.98828125 4.7578125 C7.52614258 5.29696289 8.06400391 5.83611328 8.61816406 6.39160156 C9.17729492 6.96362305 9.73642578 7.53564453 10.3125 8.125 C11.18406738 9.00623535 11.18406738 9.00623535 12.07324219 9.90527344 C15.05875044 12.94430341 17.9706558 16.01942109 20.75 19.25 C24.60998697 23.70383112 28.83250008 27.83250008 33 32 C33.33 21.77 33.66 11.54 34 1 C35.98 1 37.96 1 40 1 C40 16.51 40 32.02 40 48 C33.05204903 42.04461345 26.52255436 36.00421037 20.5625 29.0625 C16.26876272 24.16613293 11.60492075 19.60492075 7 15 C6.67 25.23 6.34 35.46 6 46 C4.02 46 2.04 46 0 46 C0 30.82 0 15.64 0 0 Z " fill="#BDBFC1" transform="translate(1654,1419)"/>
<path d="M0 0 C3.89628182 1.94814091 5.33517134 3.24773965 8.08984375 6.4609375 C13.02599431 12.08404158 18.24841776 17.36119753 23.5625 22.625 C26.676875 25.71875 29.79125 28.8125 33 32 C33.33 21.77 33.66 11.54 34 1 C35.98 1 37.96 1 40 1 C40 16.51 40 32.02 40 48 C32.11123775 41.23820378 32.11123775 41.23820378 28.40625 37.5390625 C27.60316406 36.73726562 26.80007812 35.93546875 25.97265625 35.109375 C25.15667969 34.28953125 24.34070312 33.4696875 23.5 32.625 C22.68402344 31.81289062 21.86804687 31.00078125 21.02734375 30.1640625 C20.22425781 29.3596875 19.42117187 28.5553125 18.59375 27.7265625 C17.87896484 27.01064941 17.16417969 26.29473633 16.42773438 25.55712891 C13.17930095 22.13555895 10.10682032 18.5506518 7 15 C6.67 25.23 6.34 35.46 6 46 C4.02 46 2.04 46 0 46 C0 30.82 0 15.64 0 0 Z " fill="#BDBFC1" transform="translate(2293,1419)"/>
<path d="M0 0 C20.4 0 20.4 0 27.875 4.875 C33.27225145 10.27225145 34.15894788 15.34717133 34.3125 22.75 C34.24763121 29.6909607 33.32704924 34.36454451 28.609375 39.51953125 C20.21828796 47.18191862 11.28583614 45 0 45 C0 30.15 0 15.3 0 0 Z M6 6 C6 17.22 6 28.44 6 40 C18.31056262 39.36701624 18.31056262 39.36701624 26.375 32.5 C29.00260148 26.84055065 29.08947343 20.81996622 27.375 14.80859375 C24.84215568 9.57329499 21.22658024 7.8666358 16 6 C12.7 6 9.4 6 6 6 Z " fill="#BDBFC1" transform="translate(1554,1420)"/>
<path d="M0 0 C21.14285714 0 21.14285714 0 27.8125 5.1875 C33.98848936 13.12805774 35.15745952 19.87813458 34 30 C32.34229227 35.96961041 29.04808712 39.56730076 24 43 C18 45 18 45 0 45 C0 30.15 0 15.3 0 0 Z M6 6 C6 17.22 6 28.44 6 40 C17.88902846 39.52885243 17.88902846 39.52885243 25.8125 32.9375 C28.83175633 28.01134493 28.53878561 22.58306829 28 17 C26.74495873 12.62734028 24.27694558 9.83731847 20.375 7.5625 C15.20470456 5.43943934 15.20470456 5.43943934 6 6 Z " fill="#BDBFC1" transform="translate(2487,1420)"/>
<path d="M0 0 C21.15949367 0 21.15949367 0 27.8671875 5.54296875 C32.82415173 10.72524953 33.76133113 15.99277226 34.3125 22.9375 C34.1221178 28.98213476 32.48105654 34.20714208 28.625 38.875 C19.08912754 46.5945158 13.63378419 45 0 45 C0 30.15 0 15.3 0 0 Z M6 6 C6 17.22 6 28.44 6 40 C15.47010996 39.64976656 15.47010996 39.64976656 23 36 C27.47375147 30.31712651 28.48574116 26.16468208 28 19 C26.17942998 13.13371883 23.87114644 10.45039539 19 7 C14.94590745 5.47295372 14.94590745 5.47295372 6 6 Z " fill="#BDBFC1" transform="translate(1817,1420)"/>
<path d="M0 0 C17.14876033 0 17.14876033 0 22.8203125 4.41796875 C25.13575278 7.52311217 25.10295899 11.23556182 25 15 C23.7312894 18.80613179 22.70238295 20.47321278 19.5 22.875 C17 24 17 24 14 24 C14.39380859 24.60062256 14.78761719 25.20124512 15.19335938 25.82006836 C16.96459403 28.52434541 18.73233986 31.23088526 20.5 33.9375 C21.12003906 34.88302734 21.74007812 35.82855469 22.37890625 36.80273438 C22.96542969 37.70185547 23.55195313 38.60097656 24.15625 39.52734375 C24.70087891 40.35999756 25.24550781 41.19265137 25.80664062 42.05053711 C27 44 27 44 27 45 C22.03038488 45.82106685 22.03038488 45.82106685 19 45 C16.20458358 42.21070047 14.41400875 38.93252079 12.5 35.5 C11.96375 34.59378906 11.4275 33.68757813 10.875 32.75390625 C9.55695862 30.5179432 8.27490707 28.2608352 7 26 C6.67 32.27 6.34 38.54 6 45 C4.02 45 2.04 45 0 45 C0 30.15 0 15.3 0 0 Z M6 6 C6 10.29 6 14.58 6 19 C11.94615123 19.57174897 11.94615123 19.57174897 17.0625 16.8125 C19.23471757 14.20866355 19.23471757 14.20866355 19.0625 11.375 C17.73003708 8.39655346 16.94919691 7.43678824 14 6 C11.27945955 5.76071728 8.74154718 5.86292264 6 6 Z " fill="#BDBFC1" transform="translate(2216,1420)"/>
<path d="M0 0 C20.33165323 0 20.33165323 0 27.375 5.3125 C32.57263373 10.63388692 33.62988804 15.63926824 34.0625 22.89453125 C33.93725271 29.11775616 32.55000397 34.08288983 28.625 38.9375 C18.96023228 46.53124607 13.76550245 45 0 45 C0 30.15 0 15.3 0 0 Z M5 6 C5 17.22 5 28.44 5 40 C17.11857333 39.50745447 17.11857333 39.50745447 25.875 32.875 C28.07055883 27.26412743 28.79666609 21.49601892 26.9375 15.6875 C25.13623436 11.58692292 22.66145426 9.5172498 19 7 C14.78779356 5.4202491 14.78779356 5.4202491 5 6 Z " fill="#BDBFC1" transform="translate(2016,1420)"/>
<path d="M0 0 C1.98 0 3.96 0 6 0 C6.01981934 0.94319092 6.03963867 1.88638184 6.06005859 2.8581543 C6.13834766 6.37143034 6.22504698 9.88429264 6.31738281 13.3972168 C6.35556704 14.91503978 6.39043808 16.43295001 6.421875 17.95092773 C6.46775628 20.13817431 6.52571029 22.32482582 6.5859375 24.51171875 C6.6173584 25.82615967 6.6487793 27.14060059 6.68115234 28.49487305 C7.08553058 32.94024695 7.82532598 35.82532598 11 39 C16.36734212 40.62268483 19.23336011 39.52351523 24 37 C25.55495698 33.89008604 25.24076956 30.56655951 25.31640625 27.1484375 C25.33718735 26.37440582 25.35796844 25.60037415 25.37937927 24.80288696 C25.44483448 22.32701608 25.50374087 19.85103798 25.5625 17.375 C25.60568907 15.69790552 25.64930348 14.02082193 25.69335938 12.34375 C25.80051171 8.22927692 25.90179045 4.11469586 26 0 C27.98 0 29.96 0 32 0 C32.07442006 5.01705721 32.12872908 10.03378972 32.16479492 15.05126953 C32.17983738 16.75640463 32.20027653 18.46150132 32.22631836 20.16650391 C32.26290284 22.62412012 32.27977173 25.08122269 32.29296875 27.5390625 C32.30845261 28.29555084 32.32393646 29.05203918 32.33988953 29.83145142 C32.34139771 34.625681 31.59744413 37.82182897 29 42 C24.15563045 46.3902099 19.22843154 46.34188098 12.953125 46.28125 C8.98009723 45.9028664 6.8820468 44.73424953 4 42 C0.09687093 36.6163737 -0.14544222 31.88261648 -0.09765625 25.390625 C-0.0962413 24.66381531 -0.09482635 23.93700562 -0.09336853 23.18817139 C-0.08778792 20.87540506 -0.07523904 18.56273688 -0.0625 16.25 C-0.05748249 14.67838682 -0.05292002 13.10677211 -0.04882812 11.53515625 C-0.03782485 7.69006657 -0.02057361 3.8450499 0 0 Z " fill="#BDBFC1" transform="translate(2174,1420)"/>
<path d="M0 0 C1.98 0 3.96 0 6 0 C6.01458252 0.97348389 6.02916504 1.94696777 6.04418945 2.94995117 C6.10233296 6.57515476 6.17956377 10.1997476 6.26245117 13.82446289 C6.29562532 15.39076801 6.32368058 16.95719051 6.34643555 18.52368164 C6.38012116 20.78061763 6.43244049 23.03648526 6.48828125 25.29296875 C6.49467117 25.98899704 6.5010611 26.68502533 6.50764465 27.40214539 C6.64968282 32.14035203 7.5891149 35.5891149 11 39 C12.62139437 39.12494616 14.24884122 39.17571624 15.875 39.1875 C17.20144531 39.20876953 17.20144531 39.20876953 18.5546875 39.23046875 C21.25766726 39.17068424 21.25766726 39.17068424 24 37 C25.20161511 33.39515466 25.23017136 30.02710143 25.31640625 26.26953125 C25.33718735 25.51911057 25.35796844 24.76868988 25.37937927 23.99552917 C25.44469926 21.60127816 25.50367792 19.20691861 25.5625 16.8125 C25.60570193 15.18813987 25.64931676 13.56379067 25.69335938 11.93945312 C25.80036263 7.95974629 25.90167937 3.97993042 26 0 C27.98 0 29.96 0 32 0 C32.09951569 4.83799361 32.17177037 9.67538025 32.21972656 14.51416016 C32.23973571 16.1571695 32.26695213 17.80010859 32.30175781 19.44287109 C32.35075305 21.81625788 32.37307504 24.18869649 32.390625 26.5625 C32.41127014 27.28679199 32.43191528 28.01108398 32.45318604 28.75732422 C32.45554454 34.22275877 31.05550989 38.44280088 28 43 C23.46624103 46.62700717 18.44800087 46.50423608 12.84765625 46.3515625 C8.96320091 45.87200011 6.82820732 44.68317105 4 42 C0.33476206 36.81811188 -0.14153721 32.46085592 -0.09765625 26.26953125 C-0.0962413 25.51911057 -0.09482635 24.76868988 -0.09336853 23.99552917 C-0.0877756 21.6011454 -0.07522444 19.20685547 -0.0625 16.8125 C-0.05748408 15.18815239 -0.05292134 13.56380332 -0.04882812 11.93945312 C-0.03780848 7.95959931 -0.02054873 3.97981556 0 0 Z " fill="#BDBFC1" transform="translate(1403,1420)"/>
<path d="M0 0 C3 1 3 1 4.76171875 4.27539062 C5.4148988 5.73067848 6.05599568 7.19142605 6.6875 8.65625 C7.03127686 9.43254761 7.37505371 10.20884521 7.72924805 11.00866699 C8.45699838 12.65754603 9.17959587 14.30870737 9.89746094 15.96191406 C10.98552774 18.46668433 12.08885711 20.96424416 13.1953125 23.4609375 C13.90196273 25.06730347 14.60771941 26.67406286 15.3125 28.28125 C15.63758545 29.01911743 15.9626709 29.75698486 16.29760742 30.51721191 C18.49514058 35.59184241 20.33006255 40.72889703 22 46 C19.69 46 17.38 46 15 46 C12.525 40.06 12.525 40.06 10 34 C4.06 33.67 -1.88 33.34 -8 33 C-8.45375 34.4025 -8.9075 35.805 -9.375 37.25 C-10.36783204 40.31875358 -11.49439503 43.14589666 -13 46 C-15.31 46 -17.62 46 -20 46 C-13.45161875 30.61412558 -6.75920527 15.29434366 0 0 Z M1 13 C-0.00460531 15.12282669 -1.00355602 17.24833021 -2 19.375 C-2.556875 20.55835938 -3.11375 21.74171875 -3.6875 22.9609375 C-5.13216041 25.75428575 -5.13216041 25.75428575 -5 28 C-0.71 28 3.58 28 8 28 C6.02 23.05 4.04 18.1 2 13 C1.67 13 1.34 13 1 13 Z " fill="#BDBFC1" transform="translate(2265,1419)"/>
<path d="M0 0 C0.66 0 1.32 0 2 0 C4.53062104 5.58505547 7.05735897 11.17184521 9.58056641 16.76025391 C10.43888428 18.65982047 11.29824806 20.5589148 12.15869141 22.45751953 C13.39763437 25.19178787 14.63276518 27.92775082 15.8671875 30.6640625 C16.25059296 31.50804596 16.63399841 32.35202942 17.02902222 33.22158813 C18.92180057 37.4271449 20.64406771 41.58228513 22 46 C19.69 46 17.38 46 15 46 C14.16209211 44.21046815 13.32980604 42.41830305 12.5 40.625 C12.0359375 39.62726563 11.571875 38.62953125 11.09375 37.6015625 C10 35 10 35 10 33 C4.06 33.33 -1.88 33.66 -8 34 C-9.65 37.96 -11.3 41.92 -13 46 C-15.31 46 -17.62 46 -20 46 C-17.6657357 38.38546886 -14.51277838 31.32506954 -11.125 24.125 C-10.08565373 21.89856995 -9.04658851 19.67200867 -8.0078125 17.4453125 C-7.50668945 16.37442383 -7.00556641 15.30353516 -6.48925781 14.20019531 C-4.29340285 9.48162698 -2.14230396 4.74307763 0 0 Z M0 14 C-0.84026396 15.76755526 -1.67198722 17.53917263 -2.5 19.3125 C-2.9640625 20.29863281 -3.428125 21.28476563 -3.90625 22.30078125 C-5.18777472 24.97800126 -5.18777472 24.97800126 -5 28 C-1.04 28 2.92 28 7 28 C4.68635915 20.93199136 4.68635915 20.93199136 2 14 C1.34 14 0.68 14 0 14 Z " fill="#BDBFC1" transform="translate(1739,1419)"/>
<path d="M0 0 C3.37357785 3.10691016 4.91072464 6.78147658 6.72265625 10.921875 C7.24187904 12.08919159 7.24187904 12.08919159 7.77159119 13.28009033 C8.50186711 14.92613361 9.22872247 16.5736981 9.95239258 18.22265625 C11.05394467 20.73052237 12.16765495 23.23270832 13.28320312 25.734375 C13.99292156 27.33821704 14.70192898 28.94237394 15.41015625 30.546875 C15.74040298 31.28879089 16.07064972 32.03070679 16.41090393 32.79510498 C18.31012031 37.14122218 19.80183083 41.4094696 21 46 C18.69 46 16.38 46 14 46 C11.525 40.06 11.525 40.06 9 34 C3.06 33.67 -2.88 33.34 -9 33 C-9.495 35.475 -9.495 35.475 -10 38 C-10.97265625 40.23828125 -10.97265625 40.23828125 -12.0625 42.3125 C-12.42472656 43.00988281 -12.78695313 43.70726562 -13.16015625 44.42578125 C-13.57587891 45.20501953 -13.57587891 45.20501953 -14 46 C-15.98 46 -17.96 46 -20 46 C-19.33316908 40.86592286 -17.12424313 36.45953095 -15 31.796875 C-14.60425781 30.91847961 -14.20851563 30.04008423 -13.80078125 29.1350708 C-12.96599382 27.28490239 -12.12869897 25.43586352 -11.2890625 23.58789062 C-9.99940108 20.74868147 -8.71782822 17.90592833 -7.4375 15.0625 C-6.62547046 13.26541234 -5.8129863 11.46853003 -5 9.671875 C-4.42185547 8.39071808 -4.42185547 8.39071808 -3.83203125 7.0836792 C-3.47496094 6.29906311 -3.11789062 5.51444702 -2.75 4.70605469 C-2.43546875 4.01276062 -2.1209375 3.31946655 -1.796875 2.60516357 C-1 1 -1 1 0 0 Z M0 13 C-1.00218061 15.3115773 -2.00183658 17.62418884 -3 19.9375 C-3.28617188 20.59685547 -3.57234375 21.25621094 -3.8671875 21.93554688 C-5.35501998 24.86578497 -5.35501998 24.86578497 -6 28 C-1.71 28 2.58 28 7 28 C5.02 23.05 3.04 18.1 1 13 C0.67 13 0.34 13 0 13 Z " fill="#BDBFC1" transform="translate(1627,1419)"/>
<path d="M0 0 C2.35008165 2.13950479 3.69045883 4.07425611 4.99291992 6.96484375 C5.35306686 7.75576416 5.71321381 8.54668457 6.08427429 9.36157227 C6.46251846 10.21162842 6.84076263 11.06168457 7.23046875 11.9375 C7.62575272 12.81398193 8.02103668 13.69046387 8.42829895 14.59350586 C9.26111368 16.44463098 10.09051809 18.29729366 10.91674805 20.15136719 C12.18448428 22.99323969 13.46542935 25.82888035 14.74804688 28.6640625 C15.5554836 30.46318459 16.36215062 32.26265236 17.16796875 34.0625 C17.55228561 34.91255615 17.93660248 35.7626123 18.33256531 36.63842773 C18.68325577 37.42934814 19.03394623 38.22026855 19.39526367 39.03515625 C19.70598312 39.7300415 20.01670258 40.42492676 20.33683777 41.14086914 C21 43 21 43 21 46 C19.02 46 17.04 46 15 46 C14.15930585 44.39967863 13.32768495 42.79458829 12.5 41.1875 C12.0359375 40.29417969 11.571875 39.40085937 11.09375 38.48046875 C10 36 10 36 10 33 C4.06 33.33 -1.88 33.66 -8 34 C-9.98 37.96 -11.96 41.92 -14 46 C-15.98 46 -17.96 46 -20 46 C-18.08319639 39.92113777 -15.8524887 34.09383695 -13.2421875 28.28125 C-12.8936673 27.49729858 -12.54514709 26.71334717 -12.18606567 25.90563965 C-11.45692953 24.2679097 -10.72577928 22.63107506 -9.99267578 20.99511719 C-8.86637063 18.48073565 -7.74718533 15.96327246 -6.62890625 13.4453125 C-5.91707875 11.84877454 -5.20485377 10.25241372 -4.4921875 8.65625 C-3.98907547 7.52515808 -3.98907547 7.52515808 -3.47579956 6.37121582 C-1.11589412 1.11589412 -1.11589412 1.11589412 0 0 Z M0 13 C-1.98 17.95 -3.96 22.9 -6 28 C-1.71 28 2.58 28 7 28 C6.21494099 25.87255001 5.4217394 23.74810326 4.625 21.625 C4.18414063 20.44164062 3.74328125 19.25828125 3.2890625 18.0390625 C2.2049658 14.95506554 2.2049658 14.95506554 0 13 Z " fill="#BDBFC1" transform="translate(1893,1419)"/>
<path d="M0 0 C1 1 1 1 1.0625 4.5625 C1.041875 5.696875 1.02125 6.83125 1 8 C0.46632813 7.71125 -0.06734375 7.4225 -0.6171875 7.125 C-7.20612058 3.841933 -13.0685723 2.56555718 -20.26953125 4.66015625 C-24.67092632 6.54646842 -27.25017132 8.81592943 -29.3125 13.15234375 C-31.44415082 18.88115532 -31.19916773 23.30392844 -29.06640625 28.91796875 C-26.97913197 32.99312331 -24.12592846 35.18112385 -19.890625 36.8125 C-14.40659026 38.32533717 -10.30713206 37.84692646 -5 36 C-3.845 35.62875 -2.69 35.2575 -1.5 34.875 C-0.675 34.58625 0.15 34.2975 1 34 C1 36.31 1 38.62 1 41 C-6.59752118 44.57530409 -14.40337669 45.39915583 -22.625 43.34375 C-28.85203379 40.90342595 -32.77196909 36.81275713 -36.109375 31.1015625 C-38.99086955 24.30224642 -38.33890532 16.97044218 -35.9453125 10.15625 C-33.58587407 4.77439043 -30.04030239 1.8660543 -25 -1 C-16.28521221 -4.35184146 -8.37416422 -3.80643828 0 0 Z " fill="#BDBFC1" transform="translate(1395,1422)"/>
<path d="M0 0 C1 1 1 1 1.0625 4.5625 C1.041875 5.696875 1.02125 6.83125 1 8 C0.46632813 7.71125 -0.06734375 7.4225 -0.6171875 7.125 C-6.48365032 4.20191818 -11.45857271 3.04326063 -18 4 C-21.36878771 5.30719263 -21.36878771 5.30719263 -24 7 C-24.99 7.33 -25.98 7.66 -27 8 C-28.1956805 10.10234628 -28.1956805 10.10234628 -29 13 C-29.22171875 13.66515625 -29.4434375 14.3303125 -29.671875 15.015625 C-31.38806023 21.00134422 -31.01228213 25.49884647 -28 31 C-23.75824291 35.74672817 -19.25263208 37.61886757 -13 38 C-8.08833978 37.46490856 -3.49980134 36.03216835 1 34 C1 36.31 1 38.62 1 41 C-6.59752118 44.57530409 -14.40337669 45.39915583 -22.625 43.34375 C-28.92237817 40.87585856 -33.11320158 36.75414531 -36.13671875 30.73828125 C-38.08673897 24.552923 -38.56794177 14.94583404 -35.5 9 C-25.76122012 -2.68653585 -14.18131762 -6.44605346 0 0 Z " fill="#BDBFC1" transform="translate(2378,1422)"/>
<path d="M0 0 C7.59 0 15.18 0 23 0 C23 1.98 23 3.96 23 6 C17.39 6 11.78 6 6 6 C6 9.96 6 13.92 6 18 C11.61 18 17.22 18 23 18 C23 19.98 23 21.96 23 24 C17.39 24 11.78 24 6 24 C6 29.28 6 34.56 6 40 C11.61 40 17.22 40 23 40 C23 41.65 23 43.3 23 45 C15.41 45 7.82 45 0 45 C0 30.15 0 15.3 0 0 Z " fill="#BDBFC1" transform="translate(1983,1420)"/>
<path d="M0 0 C2.18536546 1.79971273 3.12949135 3.1254772 4.125 5.75 C3.465 6.41 2.805 7.07 2.125 7.75 C-0.13774788 7.39644564 -1.82588852 6.77455574 -3.875 5.75 C-8.02003661 5.50212983 -8.02003661 5.50212983 -11.875 6.75 C-11.875 9.39 -11.875 12.03 -11.875 14.75 C-11.15570312 15.01167969 -10.43640625 15.27335937 -9.6953125 15.54296875 C-6.7747019 16.79292536 -4.36304375 18.26053864 -1.75 20.0625 C-0.90179687 20.63613281 -0.05359375 21.20976563 0.8203125 21.80078125 C3.93262986 24.43306322 5.77879448 26.95659304 6.55859375 30.99609375 C6.56819296 36.38125297 5.81391524 39.54873542 2.125 43.75 C-2.51035218 46.68605822 -7.57536564 46.2697264 -12.875 45.75 C-15.875 44.4375 -15.875 44.4375 -17.875 42.75 C-18.49375 42.275625 -19.1125 41.80125 -19.75 41.3125 C-20.875 39.75 -20.875 39.75 -20.5625 37.5625 C-20.335625 36.964375 -20.10875 36.36625 -19.875 35.75 C-18.125 35 -18.125 35 -15.875 34.75 C-15.00875 35.7090625 -15.00875 35.7090625 -14.125 36.6875 C-11.63195758 38.97278889 -11.04600213 39.09291858 -7.8125 39.1875 C-4.0703813 39.03147941 -4.0703813 39.03147941 -1.875 37.625 C-0.26758946 34.61110523 -0.14776224 33.12173869 -0.875 29.75 C-4.90385729 25.62744836 -10.25418536 22.79911765 -15.2109375 19.92578125 C-16.875 18.75 -16.875 18.75 -18.875 15.75 C-19.54035838 11.68080822 -19.79777334 7.52456411 -17.859375 3.796875 C-13.2280124 -1.95047858 -6.58533058 -2.86318721 0 0 Z " fill="#BDBFC1" transform="translate(1462.875,1420.25)"/>
<path d="M0 0 C7.59 0 15.18 0 23 0 C23 1.98 23 3.96 23 6 C17.06 6 11.12 6 5 6 C5 9.96 5 13.92 5 18 C10.94 18 16.88 18 23 18 C23 19.98 23 21.96 23 24 C17.06 24 11.12 24 5 24 C5 29.28 5 34.56 5 40 C10.94 40 16.88 40 23 40 C23 41.65 23 43.3 23 45 C15.41 45 7.82 45 0 45 C0 30.15 0 15.3 0 0 Z " fill="#BDBFC1" transform="translate(2387,1420)"/>
<path d="M0 0 C3.5 1.8125 3.5 1.8125 6 4 C6 4.99 6 5.98 6 7 C4.02 7.99 4.02 7.99 2 9 C1.01 8.34 0.02 7.68 -1 7 C-4.54199641 6.58326793 -4.54199641 6.58326793 -8 7 C-10.22920359 9.73711451 -10.22920359 9.73711451 -9.984375 12.4375 C-8.59402211 16.05683134 -6.53365686 17.01378805 -3.25 19 C7.10927835 25.32783505 7.10927835 25.32783505 9 31 C9.44992774 37.07402456 8.4165311 40.18071372 4.5 44.75 C1.04334482 47.63054598 -3.14900238 47.33125253 -7.41796875 47.28125 C-11.55888739 46.83019683 -13.72317936 45.57962476 -17 43 C-18.0625 40.375 -18.0625 40.375 -18 38 C-17.34 37.34 -16.68 36.68 -16 36 C-15.01 36 -14.02 36 -13 36 C-12.443125 36.66 -11.88625 37.32 -11.3125 38 C-8.78121207 40.18922199 -8.14104263 40.337756 -4.9375 40.4375 C-1.20266324 40.25968164 -1.20266324 40.25968164 1.0625 38.9375 C2.73455849 35.48191245 2.21972652 33.59819323 1 30 C-1.75486093 27.57296177 -4.81199201 25.80283702 -8 24 C-12.71377087 21.2066543 -15.26362163 19.31127501 -17 14 C-17.301335 9.35213591 -16.57697398 6.71362571 -13.625 3.0625 C-9.42831346 -0.23489657 -5.20742831 -0.72570564 0 0 Z " fill="#BDBFC1" transform="translate(2158,1419)"/>
<path d="M0 0 C8.91 0 17.82 0 27 0 C27 1.65 27 3.3 27 5 C23.7 5 20.4 5 17 5 C17 18.2 17 31.4 17 45 C15.02 45 13.04 45 11 45 C11 31.8 11 18.6 11 5 C7.37 5 3.74 5 0 5 C0 3.35 0 1.7 0 0 Z " fill="#BDBFC1" transform="translate(2454,1420)"/>
<path d="M0 0 C8.91 0 17.82 0 27 0 C27 1.65 27 3.3 27 5 C23.7 5 20.4 5 17 5 C17 18.2 17 31.4 17 45 C15.02 45 13.04 45 11 45 C11 31.8 11 18.6 11 5 C7.37 5 3.74 5 0 5 C0 3.35 0 1.7 0 0 Z " fill="#BDBFC1" transform="translate(1472,1420)"/>
<path d="M0 0 C1.98 0 3.96 0 6 0 C6 13.2 6 26.4 6 40 C9.96 40 13.92 40 18 40 C18 41.65 18 43.3 18 45 C12.06 45 6.12 45 0 45 C0 30.15 0 15.3 0 0 Z " fill="#BDBFC1" transform="translate(2439,1420)"/>
<path d="M0 0 C1.98 0 3.96 0 6 0 C6 13.2 6 26.4 6 40 C9.96 40 13.92 40 18 40 C18 41.65 18 43.3 18 45 C12.06 45 6.12 45 0 45 C0 30.15 0 15.3 0 0 Z " fill="#BDBFC1" transform="translate(1943,1420)"/>
<path d="M0 0 C1.98 0 3.96 0 6 0 C6 13.2 6 26.4 6 40 C9.96 40 13.92 40 18 40 C18 41.65 18 43.3 18 45 C12.06 45 6.12 45 0 45 C0 30.15 0 15.3 0 0 Z " fill="#BDBFC1" transform="translate(1920,1420)"/>
<path d="M0 0 C1.98 0 3.96 0 6 0 C6 14.85 6 29.7 6 45 C4.02 45 2.04 45 0 45 C0 30.15 0 15.3 0 0 Z " fill="#BDBFC1" transform="translate(2076,1420)"/>
<path d="M0 0 C1.98 0 3.96 0 6 0 C6 14.85 6 29.7 6 45 C4.02 45 2.04 45 0 45 C0 30.15 0 15.3 0 0 Z " fill="#BDBFC1" transform="translate(1967,1420)"/>
<path d="M0 0 C1.98 0 3.96 0 6 0 C6 14.85 6 29.7 6 45 C4.02 45 2.04 45 0 45 C0 30.15 0 15.3 0 0 Z " fill="#BDBFC1" transform="translate(1596,1420)"/>
</svg>
