<svg width="149" height="68" viewBox="0 0 149 68" fill="none" xmlns="http://www.w3.org/2000/svg">
<path d="M74.4125 12.7475C75.7155 12.7485 76.9759 12.2839 77.9666 11.4375C78.9572 10.5911 79.6129 9.41862 79.8153 8.13146C80.0177 6.8443 79.7535 5.52717 79.0705 4.41758C78.3874 3.308 77.3304 2.47897 76.09 2.08C76.44 1.58 78.39 0.895001 80.235 1.395C80.9857 1.60577 81.6843 1.97044 82.2864 2.46583C82.8886 2.96122 83.381 3.57648 83.7325 4.2725C84.51 2.825 85.585 1.4875 87.17 0.890001C88.245 0.485001 89.4 0.467501 90.475 0.0825005C90.085 1.155 90.0625 2.31 89.655 3.3825C89.0525 4.9675 87.7075 6.0375 86.2575 6.81C86.9518 7.1626 87.5651 7.65589 88.0584 8.25847C88.5516 8.86105 88.914 9.55971 89.1225 10.31C89.6225 12.1475 88.9175 14.09 88.4225 14.4525C88.0429 13.2008 87.2275 12.1265 86.1241 11.4242C85.0207 10.7219 83.7022 10.438 82.4075 10.624C81.1128 10.8099 79.9276 11.4535 79.0665 12.4379C78.2053 13.4224 77.7253 14.6828 77.7133 15.9907C77.7013 17.2986 78.1582 18.5676 79.0011 19.5677C79.844 20.5678 81.0173 21.2329 82.3083 21.4426C83.5994 21.6523 84.9228 21.3926 86.0389 20.7106C87.1551 20.0287 87.99 18.9695 88.3925 17.725C88.8925 18.075 89.58 20.0275 89.0775 21.8725C88.866 22.621 88.5009 23.3172 88.0055 23.9168C87.5101 24.5164 86.8952 25.0062 86.2 25.355C87.6475 26.135 88.9875 27.21 89.585 28.795C89.99 29.87 90.0075 31.025 90.3925 32.1C89.3175 31.71 88.1625 31.6875 87.09 31.28C85.5075 30.6775 84.4375 29.3325 83.665 27.8825C83.312 28.5763 82.8185 29.189 82.216 29.6818C81.6135 30.1746 80.915 30.5367 80.165 30.745C78.3275 31.245 76.385 30.5425 76.0225 30.0475C77.2748 29.6679 78.3498 28.8522 79.0526 27.7483C79.7554 26.6444 80.0395 25.3253 79.8536 24.0299C79.6676 22.7346 79.0238 21.5487 78.0389 20.6871C77.0539 19.8255 75.7929 19.3452 74.4843 19.3332C73.1758 19.3212 71.9062 19.7783 70.9056 20.6217C69.905 21.4651 69.2396 22.639 69.0299 23.9307C68.8202 25.2224 69.0801 26.5465 69.7626 27.6631C70.445 28.7797 71.5048 29.615 72.75 30.0175C72.3975 30.5175 70.4475 31.2025 68.6025 30.7025C67.8542 30.4906 67.1582 30.1253 66.5587 29.63C65.9591 29.1346 65.4692 28.5199 65.12 27.825C64.34 29.2725 63.265 30.6125 61.68 31.21C60.605 31.6125 59.45 31.63 58.375 32.015C58.765 30.9425 58.7875 29.7875 59.195 28.715C59.7975 27.1325 61.1425 26.0625 62.5925 25.29C61.8985 24.9374 61.2855 24.4441 60.7927 23.8415C60.2998 23.2389 59.9379 22.5402 59.73 21.79C59.23 19.9525 59.9325 18.01 60.4275 17.6475C60.8074 18.899 61.6229 19.973 62.7264 20.675C63.8298 21.3771 65.1482 21.6608 66.4428 21.4746C67.7373 21.2885 68.9224 20.645 69.7834 19.6605C70.6444 18.676 71.1243 17.4158 71.1363 16.108C71.1483 14.8002 70.6915 13.5313 69.8487 12.5312C69.0059 11.5312 67.8328 10.866 66.5419 10.6562C65.251 10.4464 63.9276 10.7059 62.8115 11.3876C61.6953 12.0693 60.8603 13.1282 60.4575 14.3725C59.9575 14.0225 59.27 12.07 59.7725 10.2275C59.984 9.4787 60.349 8.78212 60.8444 8.18213C61.3398 7.58213 61.9547 7.09185 62.65 6.7425C61.2025 5.965 59.8625 4.89 59.265 3.3025C58.8625 2.23 58.8425 1.075 58.46 0C59.5325 0.39 60.6875 0.410002 61.76 0.820002C63.3425 1.4225 64.4125 2.765 65.185 4.2175C65.5375 3.5231 66.0307 2.90973 66.6333 2.41646C67.2359 1.92319 67.9346 1.56084 68.685 1.3525C70.5225 0.852501 72.465 1.555 72.8275 2.0525C71.5757 2.43617 70.5031 3.25632 69.8047 4.36386C69.1064 5.4714 68.8287 6.79276 69.0221 8.08772C69.2155 9.38267 69.8672 10.5652 70.8587 11.4203C71.8502 12.2755 73.1157 12.7464 74.425 12.7475" fill="#A7B1B1"/>
<path d="M29.0756 43.8575C27.7454 43.6651 26.4038 43.5621 25.0598 43.5493C19.6668 43.5493 16 47.0981 16 51.7207C16 55.7365 18.8723 59.0999 24.0799 59.0999C26.1095 59.0999 28.2113 58.6329 29.3092 58.1658V54.6459H28.9817L27.9537 57.0029C27.7442 57.47 26.0276 57.8432 24.8238 57.8432C21.5784 57.8432 19.0793 55.5078 19.0793 51.4462C19.0793 47.7794 20.832 44.8157 24.754 44.8157C26.9714 44.8157 27.8357 45.2828 28.5821 47.7048H29.0275L29.0732 43.8527" fill="#900000"/>
<path d="M33.6742 55.8548C33.6742 58.3274 35.3306 59.1002 37.0592 59.1002C38.6482 59.1002 39.7437 58.7969 41.0294 57.2777H41.0751V58.8643C41.8021 58.7541 42.5356 58.6921 43.2708 58.6789C44.0052 58.6922 44.7379 58.7542 45.4641 58.8643V58.5392C44.8461 58.4392 44.2613 58.1914 43.7596 57.817C43.6199 57.7014 43.5044 57.0947 43.5044 56.1822V52.1639C43.5044 50.8566 43.5742 48.9426 43.6199 47.8447C43.5742 47.8447 40.4901 47.9844 39.3705 47.9844H39.1153V48.3118C40.6321 48.7548 40.8416 48.8487 40.9595 49.0581C41.051 49.2219 41.0751 51.1841 41.0751 51.745V54.9423C41.0751 56.695 40.0013 57.8314 38.2727 57.8314C36.9894 57.8314 36.1058 57.061 36.1058 55.472V52.1639C36.1058 50.8566 36.1757 48.9426 36.2238 47.8447C36.1757 47.8447 33.0939 47.9844 31.9744 47.9844H31.7168V48.3118C33.236 48.7548 33.4454 48.8487 33.561 49.0581C33.6549 49.2219 33.679 51.1841 33.679 51.745V55.8548" fill="#900000"/>
<path d="M55.6462 48.0227C54.5064 47.7441 53.3401 47.5875 52.1672 47.5557C50.1352 47.5557 47.8721 48.5596 47.8721 50.9263C47.8721 54.4992 53.9416 53.8154 53.9416 56.5528C53.9416 57.7903 52.5187 58.2574 51.4907 58.2574C49.6705 58.2574 49.5285 57.7903 49.1794 56.7165L48.7821 55.479H48.4306L48.1899 58.7245C49.2387 58.9661 50.3109 59.0921 51.3872 59.1001C54.4231 59.1001 56.3612 57.7903 56.3612 55.5489C56.3612 52.1782 50.2893 52.561 50.2893 50.1318C50.2893 49.058 50.9442 48.4055 52.3695 48.4055C53.2795 48.4055 53.9801 48.6632 54.1655 49.0363L55.0756 50.8324H55.4512L55.6365 48.0324" fill="#900000"/>
<path d="M58.7686 48.6847H60.1457V52.6548C60.1457 54.4292 60.0518 55.3176 60.0518 56.6249C60.0518 58.4691 60.8704 59.0999 62.2933 59.0999C63.5548 59.0999 64.489 58.6329 65.6085 57.5109L65.2594 57.1377C64.7923 57.5109 64.2555 57.8383 63.6945 57.8383C63.1335 57.8383 62.575 57.535 62.575 56.3673V48.6847H65.0259V47.9841H62.575V45.1816H62.1079C61.3239 46.5283 60.1631 47.6162 58.7686 48.3115V48.6847Z" fill="#900000"/>
<path fill-rule="evenodd" clip-rule="evenodd" d="M70.6784 52.944C70.6784 49.6769 71.8678 48.2757 73.6422 48.2757C75.7897 48.2757 76.5602 51.5909 76.5602 53.7385C76.5602 57.2415 75.3708 58.4092 73.8516 58.4092C71.355 58.4092 70.6784 55.0916 70.6784 52.944ZM68.0156 53.4255C68.0156 57.138 70.8181 59.1002 73.7601 59.1002C77.0056 59.1002 79.223 56.2496 79.223 53.2377C79.223 49.5252 76.4903 47.5654 73.7361 47.5654C70.0476 47.5751 68.0156 50.4232 68.0156 53.4351V53.4255Z" fill="#900000"/>
<path fill-rule="evenodd" clip-rule="evenodd" d="M84.2913 53.098C84.2913 51.2538 84.9702 48.4056 87.2574 48.4056C89.3592 48.4056 90.3174 50.0163 90.3174 53.2617C90.3174 57.044 88.9379 58.1178 87.3056 58.1178C85.483 58.1178 84.2913 55.7824 84.2913 53.098ZM81.6309 53.683C81.6309 57.0199 83.6629 59.1001 86.6049 59.1001C88.6129 59.1001 89.7083 58.1178 90.2693 57.162H90.3174V58.8642C91.77 58.617 93.2539 58.617 94.7065 58.8642V58.5391C94.1746 58.3962 93.6584 58.2002 93.1656 57.9541C92.8623 57.7904 92.7443 57.5352 92.7443 55.8763V47.3318C92.7443 45.1361 92.7924 43.4074 92.8623 42.1001C92.8141 42.1001 90.4547 42.3818 88.7284 42.3818H88.4708V42.7092C89.872 43.1522 90.0815 43.2461 90.1995 43.4556C90.2934 43.6193 90.3174 45.5791 90.3174 46.14V48.5476C89.5229 47.9409 88.519 47.5677 87.1418 47.5677C83.9879 47.5653 81.6309 50.5724 81.6309 53.683Z" fill="#900000"/>
<path fill-rule="evenodd" clip-rule="evenodd" d="M98.6455 44.6258C98.6455 44.9306 98.7359 45.2285 98.9052 45.4819C99.0745 45.7353 99.3151 45.9328 99.5967 46.0494C99.8782 46.166 100.188 46.1965 100.487 46.1371C100.786 46.0776 101.06 45.9309 101.276 45.7154C101.491 45.4999 101.638 45.2253 101.698 44.9264C101.757 44.6275 101.727 44.3177 101.61 44.0362C101.493 43.7546 101.296 43.514 101.042 43.3446C100.789 43.1753 100.491 43.085 100.186 43.085C99.7789 43.0887 99.3891 43.2523 99.101 43.5404C98.8128 43.8286 98.6492 44.2183 98.6455 44.6258ZM97.1143 48.5478C98.631 48.9908 98.8405 49.0847 98.9585 49.2941C99.0524 49.4579 99.074 51.42 99.074 51.981V55.5755C99.074 57.4679 99.0524 57.8652 98.9103 58.0048C98.7249 58.1902 98.3277 58.4021 97.1143 58.7752V59.1003C98.0941 59.0088 99.1679 58.9149 100.244 58.9149C101.32 58.9149 102.392 59.0088 103.49 59.1003V58.7752C102.462 58.4478 101.855 58.1685 101.715 57.9109C101.576 57.6533 101.527 57.3499 101.527 56.5097L101.506 52.3999C101.506 51.0926 101.576 49.1786 101.621 48.0807C101.576 48.0807 98.4914 48.2204 97.3719 48.2204H97.1143V48.5478Z" fill="#900000"/>
<path fill-rule="evenodd" clip-rule="evenodd" d="M112.482 54.9566C112.482 56.6612 111.454 57.8288 109.983 57.8288C108.861 57.8288 108.185 56.9645 108.185 55.8667C108.185 53.5554 110.684 53.0642 112.482 52.9968V54.9566ZM106.995 50.6229C107.836 49.5949 108.815 48.8245 110.099 48.8245C111.688 48.8245 112.482 49.6888 112.482 51.6052V52.3058C108.676 52.3058 105.897 53.6589 105.897 56.2495C105.897 57.9781 107.275 59.1001 109.073 59.1001C110.426 59.1001 111.921 58.3778 112.552 57.068H112.605V58.8641C113.283 58.7452 113.97 58.6832 114.659 58.6787C115.34 58.6897 116.019 58.7516 116.691 58.8641V58.5391L115.453 58.0022C114.916 57.7614 114.777 57.2534 114.777 55.6909V50.6374C114.777 48.5356 113.282 47.5557 111.204 47.5557C108.938 47.5557 107.679 48.42 106.348 50.204L106.995 50.6229Z" fill="#900000"/>
<path d="M119.102 59.0999C120.082 59.0084 121.159 58.9145 122.278 58.9145C123.398 58.9145 124.474 59.0084 125.454 59.0999V58.7749C124.426 58.4474 123.819 58.1681 123.679 57.9105C123.54 57.6529 123.492 57.3496 123.492 56.5093V51.9566C123.492 50.2062 124.565 49.0674 126.294 49.0674C127.577 49.0674 128.461 49.8379 128.461 51.4269V55.5752C128.461 57.4675 128.437 57.8648 128.297 58.0044C128.112 58.1898 127.714 58.4017 126.568 58.7749V59.0999C127.6 58.9863 128.636 58.9244 129.674 58.9145C130.796 58.9145 131.87 59.0084 132.85 59.0999V58.7749C131.822 58.4474 131.215 58.1681 131.075 57.9105C130.936 57.6529 130.89 57.3496 130.89 56.5093V51.0489C130.89 48.5739 129.231 47.8035 127.503 47.8035C126.747 47.7868 125.997 47.9419 125.309 48.2572C124.622 48.5725 124.015 49.0397 123.535 49.6236H123.487V48.0827C123.441 48.0827 120.475 48.2224 119.355 48.2224H119.098V48.5498C120.617 48.9928 120.826 49.0867 120.942 49.2962C121.036 49.4599 121.06 51.4221 121.06 51.983V55.5752C121.06 57.4675 121.036 57.8648 120.896 58.0044C120.708 58.1898 120.311 58.4017 119.098 58.7749V59.0999" fill="#900000"/>
<path d="M129.444 65.4504V64.9184H132.318L132.213 65.0934C132.213 65.0794 132.213 65.0665 132.213 65.0549C132.213 65.0409 132.213 65.028 132.213 65.0164C132.213 64.8017 132.167 64.6057 132.076 64.4284C131.988 64.2487 131.855 64.1052 131.677 63.9979C131.5 63.8905 131.281 63.8369 131.019 63.8369C130.756 63.8369 130.524 63.8929 130.323 64.0049C130.122 64.1169 129.966 64.2755 129.854 64.4809C129.742 64.6839 129.686 64.9265 129.686 65.2089C129.686 65.4959 129.74 65.7432 129.847 65.9509C129.957 66.1585 130.112 66.3184 130.312 66.4304C130.513 66.5424 130.751 66.5984 131.026 66.5984C131.222 66.5984 131.393 66.5785 131.537 66.5389C131.682 66.4969 131.801 66.442 131.894 66.3744C131.99 66.3044 132.062 66.2285 132.111 66.1469C132.16 66.0652 132.19 65.9835 132.199 65.9019H132.794C132.782 66.0512 132.736 66.1994 132.654 66.3464C132.572 66.4934 132.457 66.6275 132.307 66.7489C132.158 66.8679 131.975 66.9635 131.758 67.0359C131.541 67.1082 131.291 67.1444 131.009 67.1444C130.636 67.1444 130.307 67.0627 130.022 66.8994C129.737 66.736 129.513 66.5097 129.35 66.2204C129.189 65.931 129.108 65.5985 129.108 65.2229C129.108 64.8425 129.19 64.5089 129.353 64.2219C129.517 63.9325 129.742 63.7062 130.029 63.5429C130.316 63.3795 130.644 63.2979 131.012 63.2979C131.388 63.2979 131.714 63.3795 131.989 63.5429C132.264 63.7062 132.477 63.9302 132.626 64.2149C132.775 64.4972 132.85 64.8192 132.85 65.1809C132.85 65.2182 132.849 65.2672 132.846 65.3279C132.844 65.3885 132.841 65.4294 132.836 65.4504H129.444Z" fill="#A7B1B1"/>
<path d="M126.607 67.1409C126.252 67.1409 125.93 67.0639 125.641 66.9099C125.351 66.7535 125.122 66.5307 124.951 66.2414C124.783 65.952 124.699 65.6079 124.699 65.2089C124.699 64.8099 124.783 64.468 124.951 64.1834C125.122 63.8964 125.351 63.677 125.641 63.5254C125.93 63.3737 126.252 63.2979 126.607 63.2979C126.877 63.2979 127.119 63.3399 127.331 63.4239C127.544 63.5055 127.723 63.6152 127.87 63.7529C128.017 63.8905 128.129 64.0422 128.206 64.2079C128.286 64.3712 128.325 64.5345 128.325 64.6979C128.325 64.7002 128.325 64.7037 128.325 64.7084C128.325 64.713 128.325 64.7177 128.325 64.7224H127.734C127.734 64.7107 127.733 64.6979 127.73 64.6839C127.728 64.6675 127.726 64.6512 127.723 64.6349C127.705 64.4785 127.645 64.342 127.545 64.2254C127.444 64.1064 127.314 64.013 127.153 63.9454C126.992 63.8777 126.809 63.8439 126.603 63.8439C126.372 63.8439 126.158 63.894 125.959 63.9944C125.763 64.0924 125.605 64.2429 125.483 64.4459C125.364 64.6465 125.305 64.9009 125.305 65.2089C125.305 65.5145 125.364 65.77 125.483 65.9754C125.602 66.1807 125.76 66.3359 125.956 66.4409C126.154 66.5435 126.37 66.5949 126.603 66.5949C126.855 66.5949 127.063 66.5552 127.226 66.4759C127.39 66.3965 127.512 66.2915 127.594 66.1609C127.678 66.0279 127.724 65.8855 127.734 65.7339H128.325C128.325 65.9019 128.288 66.0699 128.213 66.2379C128.139 66.4035 128.029 66.5552 127.884 66.6929C127.74 66.8282 127.56 66.9367 127.345 67.0184C127.133 67.1 126.887 67.1409 126.607 67.1409Z" fill="#A7B1B1"/>
<path d="M123.21 67.0709V65.2894C123.21 65.182 123.21 65.0945 123.21 65.0269C123.21 64.9569 123.21 64.8904 123.21 64.8274C123.21 64.6337 123.177 64.4645 123.112 64.3199C123.046 64.1752 122.944 64.0632 122.804 63.9839C122.664 63.9045 122.481 63.8649 122.254 63.8649C122.056 63.8649 121.872 63.9162 121.701 64.0189C121.533 64.1192 121.398 64.2557 121.295 64.4284C121.195 64.5987 121.145 64.79 121.145 65.0024L120.805 64.8729C120.805 64.5812 120.876 64.3164 121.019 64.0784C121.163 63.8404 121.355 63.6514 121.593 63.5114C121.833 63.369 122.094 63.2979 122.377 63.2979C122.664 63.2979 122.915 63.3527 123.129 63.4624C123.344 63.572 123.51 63.7295 123.626 63.9349C123.745 64.1379 123.805 64.3829 123.805 64.6699C123.805 64.7725 123.805 64.8845 123.805 65.0059C123.805 65.1272 123.805 65.2404 123.805 65.3454V67.0709H123.21ZM120.55 67.0709V63.3539H121.145V67.0709H120.55Z" fill="#A7B1B1"/>
<path d="M117.583 67.1409C117.3 67.1409 117.053 67.0965 116.841 67.0079C116.631 66.9192 116.467 66.792 116.351 66.6264C116.234 66.4584 116.176 66.2577 116.176 66.0244C116.176 65.7817 116.239 65.5799 116.365 65.4189C116.491 65.2555 116.668 65.1284 116.897 65.0374C117.125 64.9464 117.391 64.8857 117.695 64.8554C118.152 64.8087 118.478 64.7632 118.671 64.7189C118.865 64.6722 118.962 64.5975 118.962 64.4949C118.962 64.4925 118.962 64.4914 118.962 64.4914C118.962 64.489 118.962 64.4867 118.962 64.4844C118.962 64.2697 118.874 64.1099 118.699 64.0049C118.524 63.8975 118.271 63.8439 117.94 63.8439C117.594 63.8439 117.326 63.9045 117.135 64.0259C116.943 64.1449 116.848 64.3385 116.848 64.6069H116.26C116.26 64.3292 116.331 64.0935 116.473 63.8999C116.616 63.7039 116.813 63.5545 117.065 63.4519C117.319 63.3492 117.612 63.2979 117.943 63.2979C118.247 63.2979 118.52 63.3445 118.762 63.4379C119.007 63.5289 119.201 63.6654 119.343 63.8474C119.488 64.027 119.56 64.2499 119.56 64.5159C119.56 64.5649 119.56 64.6139 119.56 64.6629C119.56 64.7095 119.56 64.7574 119.56 64.8064V66.3709C119.56 66.4525 119.564 66.5319 119.571 66.6089C119.578 66.6859 119.589 66.7535 119.606 66.8119C119.627 66.8819 119.65 66.939 119.676 66.9834C119.701 67.0254 119.722 67.0545 119.739 67.0709H119.14C119.129 67.0592 119.111 67.0324 119.088 66.9904C119.064 66.946 119.042 66.8947 119.021 66.8364C119.005 66.7897 118.992 66.7314 118.983 66.6614C118.973 66.589 118.969 66.5144 118.969 66.4374L119.067 66.5039C118.994 66.6299 118.888 66.7407 118.748 66.8364C118.611 66.932 118.444 67.0067 118.248 67.0604C118.052 67.114 117.83 67.1409 117.583 67.1409ZM117.677 66.6054C117.918 66.6054 118.135 66.5692 118.328 66.4969C118.522 66.4222 118.676 66.3125 118.79 66.1679C118.905 66.0232 118.962 65.8435 118.962 65.6289V64.8904L119.095 65.1144C118.945 65.1727 118.759 65.2205 118.535 65.2579C118.313 65.2929 118.081 65.322 117.838 65.3454C117.486 65.378 117.22 65.4399 117.04 65.5309C116.863 65.6219 116.774 65.7747 116.774 65.9894C116.774 66.1924 116.848 66.3464 116.995 66.4514C117.142 66.554 117.369 66.6054 117.677 66.6054Z" fill="#A7B1B1"/>
<path d="M113.536 67.0709V63.3539H114.131V64.4949L113.935 64.4249C113.949 64.2872 113.984 64.1519 114.04 64.0189C114.096 63.8835 114.173 63.7622 114.271 63.6549C114.371 63.5452 114.496 63.4589 114.646 63.3959C114.795 63.3305 114.97 63.2979 115.171 63.2979C115.32 63.2979 115.441 63.3107 115.535 63.3364C115.63 63.3597 115.69 63.3784 115.713 63.3924L115.559 63.9769C115.536 63.9605 115.488 63.9395 115.416 63.9139C115.346 63.8882 115.245 63.8754 115.115 63.8754C114.921 63.8754 114.76 63.9104 114.632 63.9804C114.506 64.0504 114.405 64.1437 114.331 64.2604C114.258 64.3747 114.207 64.4995 114.177 64.6349C114.146 64.7702 114.131 64.9044 114.131 65.0374V67.0709H113.536Z" fill="#A7B1B1"/>
<path d="M110.711 67.137C110.445 67.137 110.223 67.0915 110.046 67.0005C109.869 66.9072 109.727 66.787 109.622 66.64C109.52 66.493 109.446 66.3343 109.402 66.164C109.36 65.9913 109.339 65.8257 109.339 65.667C109.339 65.5783 109.339 65.4873 109.339 65.394C109.339 65.2983 109.339 65.2027 109.339 65.107V63.3535H109.937V65.03C109.937 65.1163 109.937 65.2015 109.937 65.2855C109.937 65.3695 109.937 65.4488 109.937 65.5235C109.937 65.7125 109.963 65.8875 110.014 66.0485C110.068 66.2095 110.16 66.3402 110.291 66.4405C110.422 66.5385 110.601 66.5875 110.83 66.5875C111.045 66.5875 111.232 66.5233 111.393 66.395C111.554 66.2643 111.68 66.1022 111.771 65.9085C111.862 65.7125 111.908 65.5177 111.908 65.324L112.254 65.4675C112.254 65.6728 112.218 65.8747 112.146 66.073C112.074 66.269 111.97 66.4475 111.834 66.6085C111.701 66.7695 111.539 66.8978 111.348 66.9935C111.159 67.0892 110.947 67.137 110.711 67.137ZM111.908 67.0705V63.3535H112.503V67.0705H111.908Z" fill="#A7B1B1"/>
<path d="M106.836 67.1409C106.612 67.1409 106.404 67.1175 106.213 67.0709C106.024 67.0219 105.858 66.9519 105.716 66.8609C105.576 66.7675 105.466 66.6532 105.387 66.5179C105.31 66.3825 105.271 66.2274 105.271 66.0524C105.271 66.0337 105.271 66.015 105.271 65.9964C105.271 65.9754 105.271 65.9579 105.271 65.9439H105.87C105.87 65.9579 105.87 65.9695 105.87 65.9789C105.87 65.9882 105.87 66.0022 105.87 66.0209C105.87 66.2099 105.957 66.3545 106.132 66.4549C106.307 66.5529 106.547 66.6019 106.85 66.6019C107.037 66.6019 107.203 66.5832 107.35 66.5459C107.497 66.5085 107.613 66.4514 107.697 66.3744C107.783 66.2974 107.826 66.2005 107.826 66.0839C107.826 65.8902 107.735 65.7525 107.553 65.6709C107.374 65.5869 107.104 65.5145 106.745 65.4539C106.556 65.4212 106.376 65.3792 106.206 65.3279C106.036 65.2742 105.884 65.2054 105.751 65.1214C105.62 65.0374 105.516 64.9335 105.439 64.8099C105.365 64.6839 105.327 64.5334 105.327 64.3584C105.327 64.132 105.394 63.9407 105.527 63.7844C105.662 63.6257 105.844 63.5055 106.073 63.4239C106.302 63.3399 106.556 63.2979 106.836 63.2979C107.107 63.2979 107.356 63.341 107.585 63.4274C107.814 63.5137 107.997 63.6397 108.134 63.8054C108.274 63.9687 108.344 64.1705 108.344 64.4109C108.344 64.4202 108.344 64.4319 108.344 64.4459C108.344 64.4575 108.344 64.4692 108.344 64.4809H107.749C107.749 64.4692 107.749 64.4599 107.749 64.4529C107.749 64.4459 107.749 64.4377 107.749 64.4284C107.749 64.293 107.706 64.1822 107.62 64.0959C107.534 64.0072 107.422 63.9419 107.284 63.8999C107.146 63.8555 106.999 63.8334 106.843 63.8334C106.696 63.8334 106.551 63.8497 106.409 63.8824C106.267 63.9127 106.149 63.964 106.055 64.0364C105.962 64.1087 105.915 64.2079 105.915 64.3339C105.915 64.4599 105.959 64.5614 106.045 64.6384C106.134 64.713 106.257 64.7749 106.416 64.8239C106.577 64.8705 106.766 64.9137 106.983 64.9534C107.177 64.9884 107.36 65.0327 107.532 65.0864C107.705 65.1377 107.857 65.2042 107.987 65.2859C108.12 65.3675 108.224 65.4714 108.299 65.5974C108.376 65.721 108.414 65.8727 108.414 66.0524C108.414 66.2344 108.372 66.393 108.288 66.5284C108.207 66.6637 108.092 66.7769 107.945 66.8679C107.801 66.9589 107.633 67.0265 107.441 67.0709C107.252 67.1175 107.051 67.1409 106.836 67.1409Z" fill="#A7B1B1"/>
<path d="M103.782 67.0709V65.2894C103.782 65.182 103.782 65.0945 103.782 65.0269C103.782 64.9569 103.782 64.8904 103.782 64.8274C103.782 64.6337 103.749 64.4645 103.684 64.3199C103.619 64.1752 103.516 64.0632 103.376 63.9839C103.236 63.9045 103.053 63.8649 102.827 63.8649C102.628 63.8649 102.444 63.9162 102.274 64.0189C102.106 64.1192 101.97 64.2557 101.868 64.4284C101.767 64.5987 101.717 64.79 101.717 65.0024L101.378 64.8729C101.378 64.5812 101.449 64.3164 101.591 64.0784C101.736 63.8404 101.927 63.6514 102.165 63.5114C102.405 63.369 102.667 63.2979 102.949 63.2979C103.236 63.2979 103.487 63.3527 103.702 63.4624C103.916 63.572 104.082 63.7295 104.199 63.9349C104.318 64.1379 104.377 64.3829 104.377 64.6699C104.377 64.7725 104.377 64.8845 104.377 65.0059C104.377 65.1272 104.377 65.2404 104.377 65.3454V67.0709H103.782ZM101.122 67.0709V63.3539H101.717V67.0709H101.122Z" fill="#A7B1B1"/>
<path d="M99.4775 67.0707V61.9082H100.066V67.0707H99.4775Z" fill="#A7B1B1"/>
<path d="M94.8826 67.1406C94.5769 67.1406 94.2969 67.0671 94.0426 66.9201C93.7882 66.7708 93.5852 66.5526 93.4336 66.2656C93.2819 65.9763 93.2061 65.6239 93.2061 65.2086C93.2061 64.8003 93.2831 64.4538 93.4371 64.1691C93.5911 63.8844 93.7952 63.6686 94.0496 63.5216C94.3039 63.3723 94.5816 63.2976 94.8826 63.2976C95.1696 63.2976 95.4379 63.3664 95.6876 63.5041C95.9396 63.6394 96.1426 63.8284 96.2966 64.0711C96.4506 64.3138 96.5276 64.5949 96.5276 64.9146C96.5276 64.9216 96.5276 64.9286 96.5276 64.9356C96.5276 64.9426 96.5276 64.9496 96.5276 64.9566L96.1006 64.9741C96.1006 64.9671 96.1006 64.9601 96.1006 64.9531C96.1006 64.9438 96.1006 64.9356 96.1006 64.9286C96.1006 64.7256 96.0469 64.5424 95.9396 64.3791C95.8346 64.2158 95.6957 64.0863 95.5231 63.9906C95.3504 63.8926 95.1649 63.8436 94.9666 63.8436C94.6352 63.8436 94.3611 63.9556 94.1441 64.1796C93.9271 64.4013 93.8186 64.7443 93.8186 65.2086C93.8186 65.6706 93.9271 66.0148 94.1441 66.2411C94.3634 66.4651 94.6376 66.5771 94.9666 66.5771C95.1742 66.5771 95.3632 66.5269 95.5336 66.4266C95.7062 66.3263 95.8439 66.1921 95.9466 66.0241C96.0492 65.8538 96.1006 65.6636 96.1006 65.4536L96.5276 65.4641C96.5276 65.7814 96.4541 66.0673 96.3071 66.3216C96.1601 66.5736 95.9617 66.7731 95.7121 66.9201C95.4647 67.0671 95.1882 67.1406 94.8826 67.1406ZM96.1006 67.0706V61.6001H96.6991V67.0706H96.1006Z" fill="#A7B1B1"/>
<path d="M89.0167 65.4504V64.9184H91.8902L91.7852 65.0934C91.7852 65.0794 91.7852 65.0665 91.7852 65.0549C91.7852 65.0409 91.7852 65.028 91.7852 65.0164C91.7852 64.8017 91.7397 64.6057 91.6487 64.4284C91.56 64.2487 91.427 64.1052 91.2497 63.9979C91.0723 63.8905 90.853 63.8369 90.5917 63.8369C90.328 63.8369 90.0958 63.8929 89.8952 64.0049C89.6945 64.1169 89.5382 64.2755 89.4262 64.4809C89.3142 64.6839 89.2582 64.9265 89.2582 65.2089C89.2582 65.4959 89.3118 65.7432 89.4192 65.9509C89.5288 66.1585 89.684 66.3184 89.8847 66.4304C90.0853 66.5424 90.3233 66.5984 90.5987 66.5984C90.7947 66.5984 90.965 66.5785 91.1097 66.5389C91.2543 66.4969 91.3733 66.442 91.4667 66.3744C91.5623 66.3044 91.6347 66.2285 91.6837 66.1469C91.7327 66.0652 91.7618 65.9835 91.7712 65.9019H92.3662C92.3545 66.0512 92.3078 66.1994 92.2262 66.3464C92.1445 66.4934 92.029 66.6275 91.8797 66.7489C91.7303 66.8679 91.5472 66.9635 91.3302 67.0359C91.1132 67.1082 90.8635 67.1444 90.5812 67.1444C90.2078 67.1444 89.8788 67.0627 89.5942 66.8994C89.3095 66.736 89.0855 66.5097 88.9222 66.2204C88.7612 65.931 88.6807 65.5985 88.6807 65.2229C88.6807 64.8425 88.7623 64.5089 88.9257 64.2219C89.089 63.9325 89.3142 63.7062 89.6012 63.5429C89.8882 63.3795 90.216 63.2979 90.5847 63.2979C90.9603 63.2979 91.2858 63.3795 91.5612 63.5429C91.8365 63.7062 92.0488 63.9302 92.1982 64.2149C92.3475 64.4972 92.4222 64.8192 92.4222 65.1809C92.4222 65.2182 92.421 65.2672 92.4187 65.3279C92.4163 65.3885 92.4128 65.4294 92.4082 65.4504H89.0167Z" fill="#A7B1B1"/>
<path d="M87.13 67.0706V63.3536H87.718V67.0706H87.13ZM87.4275 62.4996C87.3178 62.4996 87.2222 62.4692 87.1405 62.4086C87.0612 62.3456 87.0215 62.2604 87.0215 62.1531C87.0215 62.0481 87.0612 61.9652 87.1405 61.9046C87.2222 61.8416 87.3178 61.8101 87.4275 61.8101C87.5371 61.8101 87.6316 61.8416 87.711 61.9046C87.7903 61.9652 87.83 62.0481 87.83 62.1531C87.83 62.2604 87.7903 62.3456 87.711 62.4086C87.6316 62.4692 87.5371 62.4996 87.4275 62.4996Z" fill="#A7B1B1"/>
<path d="M86.006 61.6001V67.0706H85.418V61.6001H86.006Z" fill="#A7B1B1"/>
<path d="M84.2765 61.6001V67.0706H83.6885V61.6001H84.2765Z" fill="#A7B1B1"/>
<path d="M79.0664 67.0705L80.4874 61.894H81.4184L82.8289 67.0705H82.2129L80.9494 62.2825H80.9564L79.6824 67.0705H79.0664ZM79.8014 65.702V65.177H82.1044V65.702H79.8014Z" fill="#A7B1B1"/>
<path d="M74.7165 67.1406C74.4109 67.1406 74.1309 67.0671 73.8765 66.9201C73.6222 66.7708 73.4192 66.5526 73.2675 66.2656C73.1159 65.9763 73.04 65.6239 73.04 65.2086C73.04 64.8003 73.117 64.4538 73.271 64.1691C73.425 63.8844 73.6292 63.6686 73.8835 63.5216C74.1379 63.3723 74.4155 63.2976 74.7165 63.2976C75.0035 63.2976 75.2719 63.3664 75.5215 63.5041C75.7735 63.6394 75.9765 63.8284 76.1305 64.0711C76.2845 64.3138 76.3615 64.5949 76.3615 64.9146C76.3615 64.9216 76.3615 64.9286 76.3615 64.9356C76.3615 64.9426 76.3615 64.9496 76.3615 64.9566L75.9345 64.9741C75.9345 64.9671 75.9345 64.9601 75.9345 64.9531C75.9345 64.9438 75.9345 64.9356 75.9345 64.9286C75.9345 64.7256 75.8809 64.5424 75.7735 64.3791C75.6685 64.2158 75.5297 64.0863 75.357 63.9906C75.1844 63.8926 74.9989 63.8436 74.8005 63.8436C74.4692 63.8436 74.195 63.9556 73.978 64.1796C73.761 64.4013 73.6525 64.7443 73.6525 65.2086C73.6525 65.6706 73.761 66.0148 73.978 66.2411C74.1974 66.4651 74.4715 66.5771 74.8005 66.5771C75.0082 66.5771 75.1972 66.5269 75.3675 66.4266C75.5402 66.3263 75.6779 66.1921 75.7805 66.0241C75.8832 65.8538 75.9345 65.6636 75.9345 65.4536L76.3615 65.4641C76.3615 65.7814 76.288 66.0673 76.141 66.3216C75.994 66.5736 75.7957 66.7731 75.546 66.9201C75.2987 67.0671 75.0222 67.1406 74.7165 67.1406ZM75.9345 67.0706V61.6001H76.533V67.0706H75.9345Z" fill="#A7B1B1"/>
<path d="M71.5506 67.0709V65.2894C71.5506 65.182 71.5506 65.0945 71.5506 65.0269C71.5506 64.9569 71.5506 64.8904 71.5506 64.8274C71.5506 64.6337 71.518 64.4645 71.4526 64.3199C71.3873 64.1752 71.2846 64.0632 71.1446 63.9839C71.0046 63.9045 70.8215 63.8649 70.5951 63.8649C70.3968 63.8649 70.2125 63.9162 70.0421 64.0189C69.8741 64.1192 69.7388 64.2557 69.6361 64.4284C69.5358 64.5987 69.4856 64.79 69.4856 65.0024L69.1461 64.8729C69.1461 64.5812 69.2173 64.3164 69.3596 64.0784C69.5043 63.8404 69.6956 63.6514 69.9336 63.5114C70.174 63.369 70.4353 63.2979 70.7176 63.2979C71.0046 63.2979 71.2555 63.3527 71.4701 63.4624C71.6848 63.572 71.8505 63.7295 71.9671 63.9349C72.0861 64.1379 72.1456 64.3829 72.1456 64.6699C72.1456 64.7725 72.1456 64.8845 72.1456 65.0059C72.1456 65.1272 72.1456 65.2404 72.1456 65.3454V67.0709H71.5506ZM68.8906 67.0709V63.3539H69.4856V67.0709H68.8906Z" fill="#A7B1B1"/>
<path d="M65.9236 67.1409C65.6413 67.1409 65.3939 67.0965 65.1816 67.0079C64.9716 66.9192 64.8083 66.792 64.6916 66.6264C64.5749 66.4584 64.5166 66.2577 64.5166 66.0244C64.5166 65.7817 64.5796 65.5799 64.7056 65.4189C64.8316 65.2555 65.0089 65.1284 65.2376 65.0374C65.4663 64.9464 65.7323 64.8857 66.0356 64.8554C66.4929 64.8087 66.8184 64.7632 67.0121 64.7189C67.2058 64.6722 67.3026 64.5975 67.3026 64.4949C67.3026 64.4925 67.3026 64.4914 67.3026 64.4914C67.3026 64.489 67.3026 64.4867 67.3026 64.4844C67.3026 64.2697 67.2151 64.1099 67.0401 64.0049C66.8651 63.8975 66.6119 63.8439 66.2806 63.8439C65.9353 63.8439 65.6669 63.9045 65.4756 64.0259C65.2843 64.1449 65.1886 64.3385 65.1886 64.6069H64.6006C64.6006 64.3292 64.6718 64.0935 64.8141 63.8999C64.9564 63.7039 65.1536 63.5545 65.4056 63.4519C65.6599 63.3492 65.9528 63.2979 66.2841 63.2979C66.5874 63.2979 66.8604 63.3445 67.1031 63.4379C67.3481 63.5289 67.5418 63.6654 67.6841 63.8474C67.8288 64.027 67.9011 64.2499 67.9011 64.5159C67.9011 64.5649 67.9011 64.6139 67.9011 64.6629C67.9011 64.7095 67.9011 64.7574 67.9011 64.8064V66.3709C67.9011 66.4525 67.9046 66.5319 67.9116 66.6089C67.9186 66.6859 67.9303 66.7535 67.9466 66.8119C67.9676 66.8819 67.9909 66.939 68.0166 66.9834C68.0423 67.0254 68.0633 67.0545 68.0796 67.0709H67.4811C67.4694 67.0592 67.4519 67.0324 67.4286 66.9904C67.4053 66.946 67.3831 66.8947 67.3621 66.8364C67.3458 66.7897 67.3329 66.7314 67.3236 66.6614C67.3143 66.589 67.3096 66.5144 67.3096 66.4374L67.4076 66.5039C67.3353 66.6299 67.2291 66.7407 67.0891 66.8364C66.9514 66.932 66.7846 67.0067 66.5886 67.0604C66.3926 67.114 66.1709 67.1409 65.9236 67.1409ZM66.0181 66.6054C66.2584 66.6054 66.4754 66.5692 66.6691 66.4969C66.8628 66.4222 67.0168 66.3125 67.1311 66.1679C67.2454 66.0232 67.3026 65.8435 67.3026 65.6289V64.8904L67.4356 65.1144C67.2863 65.1727 67.0996 65.2205 66.8756 65.2579C66.6539 65.2929 66.4218 65.322 66.1791 65.3454C65.8268 65.378 65.5608 65.4399 65.3811 65.5309C65.2038 65.6219 65.1151 65.7747 65.1151 65.9894C65.1151 66.1924 65.1886 66.3464 65.3356 66.4514C65.4826 66.554 65.7101 66.6054 66.0181 66.6054Z" fill="#A7B1B1"/>
<path d="M61.242 67.0709V65.2894C61.242 65.182 61.242 65.0945 61.242 65.0269C61.242 64.9569 61.242 64.8904 61.242 64.8274C61.242 64.6337 61.2094 64.4645 61.144 64.3199C61.0787 64.1752 60.976 64.0632 60.836 63.9839C60.696 63.9045 60.5129 63.8649 60.2865 63.8649C60.0882 63.8649 59.9039 63.9162 59.7335 64.0189C59.5655 64.1192 59.4302 64.2557 59.3275 64.4284C59.2272 64.5987 59.177 64.79 59.177 65.0024L58.8375 64.8729C58.8375 64.5812 58.9087 64.3164 59.051 64.0784C59.1957 63.8404 59.387 63.6514 59.625 63.5114C59.8654 63.369 60.1267 63.2979 60.409 63.2979C60.696 63.2979 60.9469 63.3527 61.1615 63.4624C61.3762 63.572 61.5419 63.7295 61.6585 63.9349C61.7775 64.1379 61.837 64.3829 61.837 64.6699C61.837 64.7725 61.837 64.8845 61.837 65.0059C61.837 65.1272 61.837 65.2404 61.837 65.3454V67.0709H61.242ZM58.582 67.0709V63.3539H59.177V67.0709H58.582Z" fill="#A7B1B1"/>
<path d="M55.615 67.1409C55.3327 67.1409 55.0853 67.0965 54.873 67.0079C54.663 66.9192 54.4997 66.792 54.383 66.6264C54.2663 66.4584 54.208 66.2577 54.208 66.0244C54.208 65.7817 54.271 65.5799 54.397 65.4189C54.523 65.2555 54.7003 65.1284 54.929 65.0374C55.1577 64.9464 55.4237 64.8857 55.727 64.8554C56.1843 64.8087 56.5098 64.7632 56.7035 64.7189C56.8972 64.6722 56.994 64.5975 56.994 64.4949C56.994 64.4925 56.994 64.4914 56.994 64.4914C56.994 64.489 56.994 64.4867 56.994 64.4844C56.994 64.2697 56.9065 64.1099 56.7315 64.0049C56.5565 63.8975 56.3033 63.8439 55.972 63.8439C55.6267 63.8439 55.3583 63.9045 55.167 64.0259C54.9757 64.1449 54.88 64.3385 54.88 64.6069H54.292C54.292 64.3292 54.3632 64.0935 54.5055 63.8999C54.6478 63.7039 54.845 63.5545 55.097 63.4519C55.3513 63.3492 55.6442 63.2979 55.9755 63.2979C56.2788 63.2979 56.5518 63.3445 56.7945 63.4379C57.0395 63.5289 57.2332 63.6654 57.3755 63.8474C57.5202 64.027 57.5925 64.2499 57.5925 64.5159C57.5925 64.5649 57.5925 64.6139 57.5925 64.6629C57.5925 64.7095 57.5925 64.7574 57.5925 64.8064V66.3709C57.5925 66.4525 57.596 66.5319 57.603 66.6089C57.61 66.6859 57.6217 66.7535 57.638 66.8119C57.659 66.8819 57.6823 66.939 57.708 66.9834C57.7337 67.0254 57.7547 67.0545 57.771 67.0709H57.1725C57.1608 67.0592 57.1433 67.0324 57.12 66.9904C57.0967 66.946 57.0745 66.8947 57.0535 66.8364C57.0372 66.7897 57.0243 66.7314 57.015 66.6614C57.0057 66.589 57.001 66.5144 57.001 66.4374L57.099 66.5039C57.0267 66.6299 56.9205 66.7407 56.7805 66.8364C56.6428 66.932 56.476 67.0067 56.28 67.0604C56.084 67.114 55.8623 67.1409 55.615 67.1409ZM55.7095 66.6054C55.9498 66.6054 56.1668 66.5692 56.3605 66.4969C56.5542 66.4222 56.7082 66.3125 56.8225 66.1679C56.9368 66.0232 56.994 65.8435 56.994 65.6289V64.8904L57.127 65.1144C56.9777 65.1727 56.791 65.2205 56.567 65.2579C56.3453 65.2929 56.1132 65.322 55.8705 65.3454C55.5182 65.378 55.2522 65.4399 55.0725 65.5309C54.8952 65.6219 54.8065 65.7747 54.8065 65.9894C54.8065 66.1924 54.88 66.3464 55.027 66.4514C55.174 66.554 55.4015 66.6054 55.7095 66.6054Z" fill="#A7B1B1"/>
<path d="M52.6222 67.0706V63.3536H53.2102V67.0706H52.6222ZM52.9197 62.4996C52.81 62.4996 52.7143 62.4692 52.6327 62.4086C52.5533 62.3456 52.5137 62.2604 52.5137 62.1531C52.5137 62.0481 52.5533 61.9652 52.6327 61.9046C52.7143 61.8416 52.81 61.8101 52.9197 61.8101C53.0293 61.8101 53.1238 61.8416 53.2032 61.9046C53.2825 61.9652 53.3222 62.0481 53.3222 62.1531C53.3222 62.2604 53.2825 62.3456 53.2032 62.4086C53.1238 62.4692 53.0293 62.4996 52.9197 62.4996Z" fill="#A7B1B1"/>
<path d="M49.7244 67.1406C49.4187 67.1406 49.1387 67.0671 48.8844 66.9201C48.63 66.7708 48.427 66.5526 48.2754 66.2656C48.1237 65.9763 48.0479 65.6239 48.0479 65.2086C48.0479 64.8003 48.1249 64.4538 48.2789 64.1691C48.4329 63.8844 48.637 63.6686 48.8914 63.5216C49.1457 63.3723 49.4234 63.2976 49.7244 63.2976C50.0114 63.2976 50.2797 63.3664 50.5294 63.5041C50.7814 63.6394 50.9844 63.8284 51.1384 64.0711C51.2924 64.3138 51.3694 64.5949 51.3694 64.9146C51.3694 64.9216 51.3694 64.9286 51.3694 64.9356C51.3694 64.9426 51.3694 64.9496 51.3694 64.9566L50.9424 64.9741C50.9424 64.9671 50.9424 64.9601 50.9424 64.9531C50.9424 64.9438 50.9424 64.9356 50.9424 64.9286C50.9424 64.7256 50.8887 64.5424 50.7814 64.3791C50.6764 64.2158 50.5375 64.0863 50.3649 63.9906C50.1922 63.8926 50.0067 63.8436 49.8084 63.8436C49.477 63.8436 49.2029 63.9556 48.9859 64.1796C48.7689 64.4013 48.6604 64.7443 48.6604 65.2086C48.6604 65.6706 48.7689 66.0148 48.9859 66.2411C49.2052 66.4651 49.4794 66.5771 49.8084 66.5771C50.016 66.5771 50.205 66.5269 50.3754 66.4266C50.548 66.3263 50.6857 66.1921 50.7884 66.0241C50.891 65.8538 50.9424 65.6636 50.9424 65.4536L51.3694 65.4641C51.3694 65.7814 51.2959 66.0673 51.1489 66.3216C51.0019 66.5736 50.8035 66.7731 50.5539 66.9201C50.3065 67.0671 50.03 67.1406 49.7244 67.1406ZM50.9424 67.0706V61.6001H51.5409V67.0706H50.9424Z" fill="#A7B1B1"/>
<path d="M45.3581 67.1373C44.9848 67.1373 44.6546 67.0544 44.3676 66.8888C44.0829 66.7208 43.8589 66.4921 43.6956 66.2028C43.5346 65.9111 43.4541 65.5798 43.4541 65.2088C43.4541 64.8378 43.5346 64.5088 43.6956 64.2218C43.8589 63.9348 44.0829 63.7096 44.3676 63.5463C44.6546 63.3829 44.9848 63.3013 45.3581 63.3013C45.7314 63.3013 46.0604 63.3829 46.3451 63.5463C46.6321 63.7096 46.8561 63.9348 47.0171 64.2218C47.1804 64.5088 47.2621 64.8378 47.2621 65.2088C47.2621 65.5798 47.1804 65.9111 47.0171 66.2028C46.8561 66.4921 46.6321 66.7208 46.3451 66.8888C46.0604 67.0544 45.7314 67.1373 45.3581 67.1373ZM45.3581 66.5913C45.6148 66.5913 45.8411 66.5341 46.0371 66.4198C46.2331 66.3054 46.3859 66.1444 46.4956 65.9368C46.6076 65.7291 46.6636 65.4864 46.6636 65.2088C46.6636 64.9311 46.6076 64.6908 46.4956 64.4878C46.3859 64.2824 46.2331 64.1249 46.0371 64.0153C45.8411 63.9033 45.6148 63.8473 45.3581 63.8473C45.1038 63.8473 44.8774 63.9033 44.6791 64.0153C44.4831 64.1249 44.3291 64.2824 44.2171 64.4878C44.1074 64.6908 44.0526 64.9311 44.0526 65.2088C44.0526 65.4864 44.1074 65.7291 44.2171 65.9368C44.3291 66.1444 44.4831 66.3054 44.6791 66.4198C44.8774 66.5341 45.1038 66.5913 45.3581 66.5913Z" fill="#A7B1B1"/>
<path d="M42.1145 67.1266C42.0002 67.1266 41.8882 67.1137 41.7785 67.0881C41.6688 67.0624 41.5697 67.0169 41.481 66.9516C41.3947 66.8839 41.3258 66.7894 41.2745 66.6681C41.2232 66.5444 41.1975 66.3857 41.1975 66.1921C41.1975 66.1431 41.1975 66.0929 41.1975 66.0416C41.1975 65.9879 41.1975 65.9319 41.1975 65.8736V63.8786H40.291V63.3536H40.872C40.9513 63.3536 41.0132 63.3512 41.0575 63.3466C41.1018 63.3396 41.1333 63.3244 41.152 63.3011C41.173 63.2754 41.1858 63.2369 41.1905 63.1856C41.1952 63.1319 41.1975 63.0584 41.1975 62.9651V62.1216H41.796V63.3536H42.958V63.8786H41.796V65.6811C41.796 65.7324 41.796 65.7826 41.796 65.8316C41.796 65.8806 41.796 65.9261 41.796 65.9681C41.796 66.1664 41.8193 66.3216 41.866 66.4336C41.915 66.5456 42.0235 66.6016 42.1915 66.6016C42.2592 66.6016 42.3233 66.5957 42.384 66.5841C42.4447 66.5724 42.4902 66.5607 42.5205 66.5491V67.0671C42.4808 67.0811 42.4248 67.0939 42.3525 67.1056C42.2825 67.1196 42.2032 67.1266 42.1145 67.1266Z" fill="#A7B1B1"/>
<path d="M38.2168 67.1409C37.9928 67.1409 37.7852 67.1175 37.5938 67.0709C37.4048 67.0219 37.2392 66.9519 37.0968 66.8609C36.9568 66.7675 36.8472 66.6532 36.7678 66.5179C36.6908 66.3825 36.6523 66.2274 36.6523 66.0524C36.6523 66.0337 36.6523 66.015 36.6523 65.9964C36.6523 65.9754 36.6523 65.9579 36.6523 65.9439H37.2508C37.2508 65.9579 37.2508 65.9695 37.2508 65.9789C37.2508 65.9882 37.2508 66.0022 37.2508 66.0209C37.2508 66.2099 37.3383 66.3545 37.5133 66.4549C37.6883 66.5529 37.9275 66.6019 38.2308 66.6019C38.4175 66.6019 38.5843 66.5832 38.7313 66.5459C38.8783 66.5085 38.9938 66.4514 39.0778 66.3744C39.1642 66.2974 39.2073 66.2005 39.2073 66.0839C39.2073 65.8902 39.1163 65.7525 38.9343 65.6709C38.7547 65.5869 38.4852 65.5145 38.1258 65.4539C37.9368 65.4212 37.7572 65.3792 37.5868 65.3279C37.4165 65.2742 37.2648 65.2054 37.1318 65.1214C37.0012 65.0374 36.8973 64.9335 36.8203 64.8099C36.7457 64.6839 36.7083 64.5334 36.7083 64.3584C36.7083 64.132 36.7748 63.9407 36.9078 63.7844C37.0432 63.6257 37.2252 63.5055 37.4538 63.4239C37.6825 63.3399 37.9368 63.2979 38.2168 63.2979C38.4875 63.2979 38.7372 63.341 38.9658 63.4274C39.1945 63.5137 39.3777 63.6397 39.5153 63.8054C39.6553 63.9687 39.7253 64.1705 39.7253 64.4109C39.7253 64.4202 39.7253 64.4319 39.7253 64.4459C39.7253 64.4575 39.7253 64.4692 39.7253 64.4809H39.1303C39.1303 64.4692 39.1303 64.4599 39.1303 64.4529C39.1303 64.4459 39.1303 64.4377 39.1303 64.4284C39.1303 64.293 39.0872 64.1822 39.0008 64.0959C38.9145 64.0072 38.8025 63.9419 38.6648 63.8999C38.5272 63.8555 38.3802 63.8334 38.2238 63.8334C38.0768 63.8334 37.9322 63.8497 37.7898 63.8824C37.6475 63.9127 37.5297 63.964 37.4363 64.0364C37.343 64.1087 37.2963 64.2079 37.2963 64.3339C37.2963 64.4599 37.3395 64.5614 37.4258 64.6384C37.5145 64.713 37.6382 64.7749 37.7968 64.8239C37.9578 64.8705 38.1468 64.9137 38.3638 64.9534C38.5575 64.9884 38.7407 65.0327 38.9133 65.0864C39.086 65.1377 39.2377 65.2042 39.3683 65.2859C39.5013 65.3675 39.6052 65.4714 39.6798 65.5974C39.7568 65.721 39.7953 65.8727 39.7953 66.0524C39.7953 66.2344 39.7533 66.393 39.6693 66.5284C39.5877 66.6637 39.4733 66.7769 39.3263 66.8679C39.1817 66.9589 39.0137 67.0265 38.8223 67.0709C38.6333 67.1175 38.4315 67.1409 38.2168 67.1409Z" fill="#A7B1B1"/>
<path d="M33.9706 67.137C33.7046 67.137 33.483 67.0915 33.3056 67.0005C33.1283 66.9072 32.9871 66.787 32.8821 66.64C32.7795 66.493 32.706 66.3343 32.6616 66.164C32.6196 65.9913 32.5986 65.8257 32.5986 65.667C32.5986 65.5783 32.5986 65.4873 32.5986 65.394C32.5986 65.2983 32.5986 65.2027 32.5986 65.107V63.3535H33.1971V65.03C33.1971 65.1163 33.1971 65.2015 33.1971 65.2855C33.1971 65.3695 33.1971 65.4488 33.1971 65.5235C33.1971 65.7125 33.2228 65.8875 33.2741 66.0485C33.3278 66.2095 33.42 66.3402 33.5506 66.4405C33.6813 66.5385 33.861 66.5875 34.0896 66.5875C34.3043 66.5875 34.4921 66.5233 34.6531 66.395C34.8141 66.2643 34.9401 66.1022 35.0311 65.9085C35.1221 65.7125 35.1676 65.5177 35.1676 65.324L35.5141 65.4675C35.5141 65.6728 35.478 65.8747 35.4056 66.073C35.3333 66.269 35.2295 66.4475 35.0941 66.6085C34.9611 66.7695 34.799 66.8978 34.6076 66.9935C34.4186 67.0892 34.2063 67.137 33.9706 67.137ZM35.1676 67.0705V63.3535H35.7626V67.0705H35.1676Z" fill="#A7B1B1"/>
<path d="M31.7127 65.2752C31.7127 65.4829 31.6742 65.6964 31.5972 65.9157C31.5202 66.1327 31.4036 66.3345 31.2472 66.5212C31.0932 66.7055 30.8984 66.8549 30.6627 66.9692C30.4271 67.0835 30.1506 67.1407 29.8332 67.1407C29.3969 67.1407 29.0259 67.0275 28.7202 66.8012C28.4146 66.5725 28.1812 66.2587 28.0202 65.8597C27.8616 65.4607 27.7822 65.0045 27.7822 64.4912C27.7822 63.9755 27.8616 63.5194 28.0202 63.1227C28.1812 62.7237 28.4146 62.411 28.7202 62.1847C29.0259 61.9584 29.3969 61.8452 29.8332 61.8452C30.1972 61.8452 30.5076 61.9199 30.7642 62.0692C31.0209 62.2185 31.2251 62.4087 31.3767 62.6397C31.5284 62.8707 31.6276 63.1087 31.6742 63.3537C31.6999 63.4774 31.7127 63.594 31.7127 63.7037H31.1142C31.1142 63.6407 31.1084 63.5684 31.0967 63.4867C31.0687 63.2907 31.0011 63.1099 30.8937 62.9442C30.7887 62.7762 30.6476 62.642 30.4702 62.5417C30.2929 62.439 30.0806 62.3877 29.8332 62.3877C29.5439 62.3877 29.2907 62.467 29.0737 62.6257C28.8591 62.7844 28.6911 63.02 28.5697 63.3327C28.4507 63.6454 28.3912 64.0315 28.3912 64.4912C28.3912 64.9509 28.4507 65.3382 28.5697 65.6532C28.6911 65.9659 28.8591 66.2027 29.0737 66.3637C29.2907 66.5224 29.5439 66.6017 29.8332 66.6017C30.0409 66.6017 30.2241 66.5644 30.3827 66.4897C30.5414 66.4127 30.6744 66.3112 30.7817 66.1852C30.8914 66.0569 30.9742 65.9145 31.0302 65.7582C31.0862 65.5995 31.1142 65.4385 31.1142 65.2752H31.7127Z" fill="#A7B1B1"/>
</svg>
